<?xml version="1.0" standalone="no"?>
 <!DOCTYPE svg PUBLIC "-//W3C//DTD SVG 1.1//EN" 
 "http://www.w3.org/Graphics/SVG/1.1/DTD/svg11.dtd"> 
<svg xmlns="http://www.w3.org/2000/svg" version="1.1" 
    width="7.72668cm" height="2.6289cm" viewBox="0 0 30420 10350 ">
<title>SVG Picture created as usb_injector-brd.svg date 2015/02/07 22:58:36 </title>
  <desc>Picture generated by PCBNEW </desc>
<g style="fill:#000000; fill-opacity:1;stroke:#000000; stroke-opacity:1;
stroke-linecap:round; stroke-linejoin:round; "
 transform="translate(0 0) scale(1 1)">
</g>
<g style="fill:#840084; fill-opacity:0.0; 
stroke:#840084; stroke-width:118.11; stroke-opacity:1; 
stroke-linecap:round; stroke-linejoin:round;">
<path d="M19448 1754
L19448 2233
L19420 2289
L19392 2317
L19336 2345
L19224 2345
L19167 2317
L19139 2289
L19111 2233
L19111 1754
" />
<path d="M18858 2317
L18774 2345
L18633 2345
L18577 2317
L18549 2289
L18520 2233
L18520 2176
L18549 2120
L18577 2092
L18633 2064
L18745 2036
L18802 2008
L18830 1979
L18858 1923
L18858 1867
L18830 1811
L18802 1783
L18745 1754
L18605 1754
L18520 1783
" />
<path d="M18071 2036
L17986 2064
L17958 2092
L17930 2148
L17930 2233
L17958 2289
L17986 2317
L18042 2345
L18267 2345
L18267 1754
L18071 1754
L18014 1783
L17986 1811
L17958 1867
L17958 1923
L17986 1979
L18014 2008
L18071 2036
L18267 2036
" />
<path d="M17227 2345
L17227 1754
" />
<path d="M16946 2345
L16946 1754
L16608 2345
L16608 1754
" />
<path d="M16158 1754
L16158 2176
L16186 2261
L16243 2317
L16327 2345
L16383 2345
" />
<path d="M15877 2036
L15680 2036
" />
<path d="M15596 2345
L15877 2345
L15877 1754
L15596 1754
" />
<path d="M15005 2289
L15033 2317
L15118 2345
L15174 2345
L15258 2317
L15315 2261
L15343 2204
L15371 2092
L15371 2008
L15343 1895
L15315 1839
L15258 1783
L15174 1754
L15118 1754
L15033 1783
L15005 1811
" />
<path d="M14837 1754
L14499 1754
" />
<path d="M14668 2345
L14668 1754
" />
<path d="M14190 1754
L14077 1754
L14021 1783
L13965 1839
L13937 1951
L13937 2148
L13965 2261
L14021 2317
L14077 2345
L14190 2345
L14246 2317
L14302 2261
L14330 2148
L14330 1951
L14302 1839
L14246 1783
L14190 1754
" />
<path d="M13346 2345
L13543 2064
" />
<path d="M13684 2345
L13684 1754
L13459 1754
L13402 1783
L13374 1811
L13346 1867
L13346 1951
L13374 2008
L13402 2036
L13459 2064
L13684 2064
" />
<path d="M12727 1754
L12531 2345
L12334 1754
" />
<path d="M11828 2345
L12165 2345
" />
<path d="M11996 2345
L11996 1754
L12053 1839
L12109 1895
L12165 1923
" />
<path d="M11574 2289
L11546 2317
L11574 2345
L11603 2317
L11574 2289
L11574 2345
" />
<path d="M11181 1754
L11125 1754
L11068 1783
L11040 1811
L11012 1867
L10984 1979
L10984 2120
L11012 2233
L11040 2289
L11068 2317
L11125 2345
L11181 2345
L11237 2317
L11265 2289
L11293 2233
L11321 2120
L11321 1979
L11293 1867
L11265 1811
L11237 1783
L11181 1754
" />
<path d="M13906 9157
L13822 9186
L13681 9186
L13625 9157
L13597 9129
L13569 9073
L13569 9017
L13597 8961
L13625 8932
L13681 8904
L13794 8876
L13850 8848
L13878 8820
L13906 8764
L13906 8707
L13878 8651
L13850 8623
L13794 8595
L13653 8595
L13569 8623
" />
<path d="M13315 9186
L13315 8595
" />
<path d="M13315 8876
L12978 8876
" />
<path d="M12978 9186
L12978 8595
" />
<path d="M12416 9186
L12697 9186
L12697 8595
" />
<path d="M12219 9186
L12219 8595
L12078 8595
L11994 8623
L11938 8679
L11909 8736
L11881 8848
L11881 8932
L11909 9045
L11938 9101
L11994 9157
L12078 9186
L12219 9186
" />
<path d="M13594 7623
L13650 7595
L13734 7595
L13819 7623
L13875 7679
L13903 7736
L13931 7848
L13931 7932
L13903 8045
L13875 8101
L13819 8157
L13734 8186
L13678 8186
L13594 8157
L13565 8129
L13565 7932
L13678 7932
" />
<path d="M13312 8186
L13312 7595
L12975 8186
L12975 7595
" />
<path d="M12694 8186
L12694 7595
L12553 7595
L12469 7623
L12412 7679
L12384 7736
L12356 7848
L12356 7932
L12384 8045
L12412 8101
L12469 8157
L12553 8186
L12694 8186
" />
<path d="M13939 7186
L13939 6595
" />
<path d="M13658 7186
L13658 6595
L13517 6595
L13433 6623
L13376 6679
L13348 6736
L13320 6848
L13320 6932
L13348 7045
L13376 7101
L13433 7157
L13517 7186
L13658 7186
" />
<path d="M13914 6186
L13914 5595
L13773 5595
L13689 5623
L13633 5679
L13605 5736
L13576 5848
L13576 5932
L13605 6045
L13633 6101
L13689 6157
L13773 6186
L13914 6186
" />
<path d="M13323 5961
L12873 5961
" />
<path d="M13098 6186
L13098 5736
" />
<path d="M13914 5186
L13914 4595
L13773 4595
L13689 4623
L13633 4679
L13605 4736
L13576 4848
L13576 4932
L13605 5045
L13633 5101
L13689 5157
L13773 5186
L13914 5186
" />
<path d="M13323 4961
L12873 4961
" />
<path d="M13931 3595
L13734 4186
L13537 3595
" />
<path d="M13003 4129
L13031 4157
L13116 4186
L13172 4186
L13256 4157
L13312 4101
L13341 4045
L13369 3932
L13369 3848
L13341 3736
L13312 3679
L13256 3623
L13172 3595
L13116 3595
L13031 3623
L13003 3651
" />
<path d="M12412 4129
L12441 4157
L12525 4186
L12581 4186
L12666 4157
L12722 4101
L12750 4045
L12778 3932
L12778 3848
L12750 3736
L12722 3679
L12666 3623
L12581 3595
L12525 3595
L12441 3623
L12412 3651
" />
</g>
<g style="fill:#840084; fill-opacity:0.0; 
stroke:#840084; stroke-width:59.0551; stroke-opacity:1; 
stroke-linecap:round; stroke-linejoin:round;">
<path d="M20466 8909
L23774 8909
" />
<path d="M18262 8909
L18970 8909
" />
<path d="M20466 3751
L23774 3751
" />
<path d="M18262 3751
L18970 3751
" />
<path d="M23144 7846
L22376 7846
" />
<path d="M23144 7176
L23144 7846
" />
<path d="M22356 7176
L23144 7176
" />
<path d="M22356 7176
L21608 7176
" />
<path d="M22376 7846
L21608 7846
" />
<path d="M21982 8082
L22337 7846
" />
<path d="M21608 8082
L21982 8082
" />
<path d="M21982 6940
L22337 7176
" />
<path d="M21608 6940
L21982 6940
" />
<path d="M21608 8082
L21608 6940
" />
<path d="M22337 7176
L22337 7846
" />
<path d="M23026 7294
L23026 7727
" />
<path d="M23026 7727
L22337 7846
" />
<path d="M23026 7294
L22337 7176
" />
<path d="M23026 4932
L22337 4814
" />
<path d="M23026 5365
L22337 5483
" />
<path d="M23026 4932
L23026 5365
" />
<path d="M22337 4814
L22337 5483
" />
<path d="M21608 5720
L21608 4578
" />
<path d="M21608 4578
L21982 4578
" />
<path d="M21982 4578
L22337 4814
" />
<path d="M21608 5720
L21982 5720
" />
<path d="M21982 5720
L22337 5483
" />
<path d="M22376 5483
L21608 5483
" />
<path d="M22356 4814
L21608 4814
" />
<path d="M22356 4814
L23144 4814
" />
<path d="M23144 4814
L23144 5483
" />
<path d="M23144 5483
L22376 5483
" />
<path d="M24049.7 9184.65 A275.591 275.591 0.0 0 0 23774.1 8909.06 " />
<path d="M23774.1 3751.57 A275.591 275.591 0.0 0 0 24049.7 3475.98 " />
<path d="M18262 3751
L18262 8909
" />
<path d="M23774 8909
L23774 3751
" />
<path d="M915 8716
L6715 8712
" />
<path d="M6722 3987
L915 3987
" />
<path d="M6715 3987
L7120 3987
" />
<path d="M6715 8712
L7120 8712
" />
<path d="M8254 4440
L8254 8259
" />
<path d="M2514 4460
L3301 4460
" />
<path d="M3301 4460
L3301 5326
" />
<path d="M3301 5326
L2514 5326
" />
<path d="M2514 5326
L2514 4460
" />
<path d="M2514 8239
L3301 8239
" />
<path d="M3301 8239
L3301 7373
" />
<path d="M3301 7373
L2514 7373
" />
<path d="M2514 7373
L2514 8239
" />
<path d="M6687 6350
L5427 6350
" />
<path d="M5427 6350
L5663 6113
" />
<path d="M5663 6113
L4876 6113
" />
<path d="M4876 6113
L5112 6350
" />
<path d="M5112 6350
L2041 6350
" />
<path d="M2041 6350
L2278 6113
" />
<path d="M2278 6113
L1490 6113
" />
<path d="M1490 6113
L1726 6350
" />
<path d="M1726 6350
L939 6350
" />
<path d="M6715 8712
L6715 3987
" />
<path d="M915 3987
L915 8712
" />
<path d="M22337 4794
L21352 4794
" />
<path d="M23911 4794
L23518 4794
" />
<path d="M23518 7826
L23911 7826
" />
<path d="M21352 7826
L22337 7826
" />
<path d="M20270 7137
L20270 7550
" />
<path d="M20270 5070
L20270 5483
" />
<path d="M22907 6468
L22474 6389
" />
<path d="M22474 6389
L22474 6231
" />
<path d="M22474 6231
L22907 6133
" />
<path d="M22907 6133
L22907 6487
" />
<path d="M23636 6133
L22376 6133
" />
<path d="M22376 6133
L22376 6487
" />
<path d="M22376 6487
L23636 6487
" />
<path d="M23636 4794
L23636 7826
" />
<path d="M23911 7826
L23911 4794
" />
<path d="M10506 1251
L10506 2787
" />
<path d="M7592 2787
L7592 1251
" />
<path d="M8360 3220
L8163 3220
" />
<path d="M9935 3220
L9738 3220
" />
<path d="M10388 1015
L7711 1015
" />
<path d="M7711 1015
L7711 1251
" />
<path d="M10388 1015
L10388 1251
" />
<path d="M10506 1251
L10624 1015
" />
<path d="M7592 1251
L7474 1015
" />
<path d="M10506 1251
L7592 1251
" />
<path d="M24030 6199
L24312 6199
L24368 6180
L24405 6142
L24424 6086
L24424 6049
" />
<path d="M24030 6555
L24030 6480
L24049 6442
L24068 6424
L24124 6386
L24199 6367
L24349 6367
L24387 6386
L24405 6405
L24424 6442
L24424 6517
L24405 6555
L24387 6574
L24349 6592
L24255 6592
L24218 6574
L24199 6555
L24180 6517
L24180 6442
L24199 6405
L24218 6386
L24255 6367
" />
<path d="M17456 4605
L17774 4605
L17812 4624
L17831 4643
L17849 4680
L17849 4755
L17831 4793
L17812 4811
L17774 4830
L17456 4830
" />
<path d="M17831 4999
L17849 5055
L17849 5149
L17831 5186
L17812 5205
L17774 5224
L17737 5224
L17699 5205
L17681 5186
L17662 5149
L17643 5074
L17624 5036
L17606 5017
L17568 4999
L17531 4999
L17493 5017
L17474 5036
L17456 5074
L17456 5167
L17474 5224
" />
<path d="M17643 5524
L17662 5580
L17681 5599
L17718 5617
L17774 5617
L17812 5599
L17831 5580
L17849 5542
L17849 5392
L17456 5392
L17456 5524
L17474 5561
L17493 5580
L17531 5599
L17568 5599
L17606 5580
L17624 5561
L17643 5524
L17643 5392
" />
<path d="M17887 5692
L17887 5992
" />
<path d="M17643 6217
L17643 6086
" />
<path d="M17849 6086
L17456 6086
L17456 6274
" />
<path d="M17643 6424
L17643 6555
" />
<path d="M17849 6611
L17849 6424
L17456 6424
L17456 6611
" />
<path d="M17849 6780
L17456 6780
L17737 6911
L17456 7042
L17849 7042
" />
<path d="M17737 7211
L17737 7398
" />
<path d="M17849 7173
L17456 7305
L17849 7436
" />
<path d="M17849 7755
L17849 7567
L17456 7567
" />
<path d="M17643 7886
L17643 8017
" />
<path d="M17849 8073
L17849 7886
L17456 7886
L17456 8073
" />
<path d="M251 6218
L532 6218
L588 6200
L626 6162
L645 6106
L645 6068
" />
<path d="M645 6612
L645 6387
" />
<path d="M645 6499
L251 6499
L307 6462
L345 6424
L363 6387
" />
<path d="M9503 4972
L9822 4972
L9859 4990
L9878 5009
L9897 5047
L9897 5122
L9878 5159
L9859 5178
L9822 5197
L9503 5197
" />
<path d="M9878 5365
L9897 5421
L9897 5515
L9878 5553
L9859 5571
L9822 5590
L9784 5590
L9747 5571
L9728 5553
L9709 5515
L9690 5440
L9672 5403
L9653 5384
L9615 5365
L9578 5365
L9540 5384
L9522 5403
L9503 5440
L9503 5534
L9522 5590
" />
<path d="M9690 5890
L9709 5946
L9728 5965
L9765 5984
L9822 5984
L9859 5965
L9878 5946
L9897 5909
L9897 5759
L9503 5759
L9503 5890
L9522 5928
L9540 5946
L9578 5965
L9615 5965
L9653 5946
L9672 5928
L9690 5890
L9690 5759
" />
<path d="M9934 6059
L9934 6359
" />
<path d="M9897 6453
L9503 6453
L9784 6584
L9503 6715
L9897 6715
" />
<path d="M9784 6884
L9784 7071
" />
<path d="M9897 6846
L9503 6978
L9897 7109
" />
<path d="M9897 7427
L9897 7240
L9503 7240
" />
<path d="M9690 7559
L9690 7690
" />
<path d="M9897 7746
L9897 7559
L9503 7559
L9503 7746
" />
<path d="M24129 6179
L24410 6179
L24466 6160
L24504 6123
L24523 6066
L24523 6029
" />
<path d="M24129 6329
L24129 6591
L24523 6423
" />
<path d="M19542 3320
L19861 3320
L19898 3339
L19917 3357
L19936 3395
L19936 3470
L19917 3507
L19898 3526
L19861 3545
L19542 3545
" />
<path d="M19917 3714
L19936 3770
L19936 3864
L19917 3901
L19898 3920
L19861 3939
L19823 3939
L19786 3920
L19767 3901
L19748 3864
L19730 3789
L19711 3751
L19692 3732
L19655 3714
L19617 3714
L19580 3732
L19561 3751
L19542 3789
L19542 3882
L19561 3939
" />
<path d="M19730 4239
L19748 4295
L19767 4314
L19805 4332
L19861 4332
L19898 4314
L19917 4295
L19936 4257
L19936 4107
L19542 4107
L19542 4239
L19561 4276
L19580 4295
L19617 4314
L19655 4314
L19692 4295
L19711 4276
L19730 4239
L19730 4107
" />
<path d="M19973 4407
L19973 4707
" />
<path d="M19730 4932
L19730 4801
" />
<path d="M19936 4801
L19542 4801
L19542 4988
" />
<path d="M19730 5138
L19730 5270
" />
<path d="M19936 5326
L19936 5138
L19542 5138
L19542 5326
" />
<path d="M19936 5495
L19542 5495
L19823 5626
L19542 5757
L19936 5757
" />
<path d="M19823 5926
L19823 6113
" />
<path d="M19936 5888
L19542 6020
L19936 6151
" />
<path d="M19936 6469
L19936 6282
L19542 6282
" />
<path d="M19730 6601
L19730 6732
" />
<path d="M19936 6788
L19936 6601
L19542 6601
L19542 6788
" />
<path d="M19973 6863
L19973 7163
" />
<path d="M19542 7219
L19936 7313
L19655 7388
L19936 7463
L19542 7557
" />
<path d="M19936 7707
L19542 7707
" />
<path d="M19542 7838
L19542 8063
" />
<path d="M19936 7951
L19542 7951
" />
<path d="M19936 8194
L19542 8194
" />
<path d="M19730 8194
L19730 8419
" />
<path d="M19936 8419
L19542 8419
" />
<path d="M19973 8513
L19973 8813
" />
<path d="M19936 8907
L19542 8907
" />
<path d="M19936 9094
L19542 9094
L19542 9188
L19561 9244
L19598 9282
L19636 9300
L19711 9319
L19767 9319
L19842 9300
L19880 9282
L19917 9244
L19936 9188
L19936 9094
" />
<path d="M9180 248
L9180 529
L9199 586
L9237 623
L9293 642
L9330 642
" />
<path d="M9030 248
L8787 248
L8918 398
L8862 398
L8824 417
L8805 436
L8787 473
L8787 567
L8805 604
L8824 623
L8862 642
L8974 642
L9012 623
L9030 604
" />
<path d="M12039 3772
L12039 4090
L12021 4128
L12002 4147
L11964 4165
L11889 4165
L11852 4147
L11833 4128
L11814 4090
L11814 3772
" />
<path d="M11646 4147
L11589 4165
L11496 4165
L11458 4147
L11439 4128
L11421 4090
L11421 4053
L11439 4015
L11458 3997
L11496 3978
L11571 3959
L11608 3940
L11627 3922
L11646 3884
L11646 3847
L11627 3809
L11608 3790
L11571 3772
L11477 3772
L11421 3790
" />
<path d="M11121 3959
L11065 3978
L11046 3997
L11027 4034
L11027 4090
L11046 4128
L11065 4147
L11102 4165
L11252 4165
L11252 3772
L11121 3772
L11083 3790
L11065 3809
L11046 3847
L11046 3884
L11065 3922
L11083 3940
L11121 3959
L11252 3959
" />
<path d="M10952 4203
L10652 4203
" />
<path d="M10427 3959
L10558 3959
" />
<path d="M10558 4165
L10558 3772
L10371 3772
" />
<path d="M10221 3959
L10090 3959
" />
<path d="M10033 4165
L10221 4165
L10221 3772
L10033 3772
" />
<path d="M9865 4165
L9865 3772
L9733 4053
L9602 3772
L9602 4165
" />
<path d="M9433 4053
L9246 4053
" />
<path d="M9471 4165
L9340 3772
L9209 4165
" />
<path d="M8890 4165
L9077 4165
L9077 3772
" />
<path d="M8759 3959
L8627 3959
" />
<path d="M8571 4165
L8759 4165
L8759 3772
L8571 3772
" />
<path d="M8496 4203
L8196 4203
" />
<path d="M8140 3772
L8046 4165
L7971 3884
L7896 4165
L7802 3772
" />
<path d="M7652 4165
L7652 3772
" />
<path d="M7521 3772
L7296 3772
" />
<path d="M7409 4165
L7409 3772
" />
<path d="M7165 4165
L7165 3772
" />
<path d="M7165 3959
L6940 3959
" />
<path d="M6940 4165
L6940 3772
" />
<path d="M6846 4203
L6546 4203
" />
<path d="M6453 4165
L6453 3772
" />
<path d="M6265 4165
L6265 3772
L6171 3772
L6115 3790
L6078 3828
L6059 3865
L6040 3940
L6040 3997
L6059 4072
L6078 4109
L6115 4147
L6171 4165
L6265 4165
" />
</g>
<g style="fill:#840000; fill-opacity:0.0; 
stroke:#840000; stroke-width:39.3701; stroke-opacity:1; 
stroke-linecap:round; stroke-linejoin:round;">
</g>
<g style="fill:#840000; fill-opacity:1.0; 
stroke:#840000; stroke-width:39.3701; stroke-opacity:1; 
stroke-linecap:round; stroke-linejoin:round;">
<polyline style="fill-rule:evenodd;"
points="14263,3598
15024,3598
15024,4239
14263,4239
14263,3598
" /> 
</g>
<g style="fill:#840000; fill-opacity:1.0; 
stroke:#840000; stroke-width:680; stroke-opacity:1; 
stroke-linecap:round; stroke-linejoin:round;">
</g>
<g style="fill:#840000; fill-opacity:0.0; 
stroke:#840000; stroke-width:680; stroke-opacity:1; 
stroke-linecap:round; stroke-linejoin:round;">
<path d="M14704 4918
L14584 4918
" />
<path d="M14704 5918
L14584 5918
" />
<path d="M14704 6918
L14584 6918
" />
<path d="M14704 7918
L14584 7918
" />
<path d="M14704 8918
L14584 8918
" />
</g>
<g style="fill:#840000; fill-opacity:0.0; 
stroke:#840000; stroke-width:39.3701; stroke-opacity:1; 
stroke-linecap:round; stroke-linejoin:round;">
</g>
<g style="fill:#840000; fill-opacity:1.0; 
stroke:#840000; stroke-width:39.3701; stroke-opacity:1; 
stroke-linecap:round; stroke-linejoin:round;">
<polyline style="fill-rule:evenodd;"
points="15513,3598
16274,3598
16274,4239
15513,4239
15513,3598
" /> 
</g>
<g style="fill:#840000; fill-opacity:1.0; 
stroke:#840000; stroke-width:680; stroke-opacity:1; 
stroke-linecap:round; stroke-linejoin:round;">
</g>
<g style="fill:#840000; fill-opacity:0.0; 
stroke:#840000; stroke-width:680; stroke-opacity:1; 
stroke-linecap:round; stroke-linejoin:round;">
<path d="M15954 4918
L15834 4918
" />
<path d="M15954 5918
L15834 5918
" />
<path d="M15954 6918
L15834 6918
" />
<path d="M15954 7918
L15834 7918
" />
<path d="M15954 8918
L15834 8918
" />
</g>
<g style="fill:#840000; fill-opacity:0.0; 
stroke:#840000; stroke-width:39.3701; stroke-opacity:1; 
stroke-linecap:round; stroke-linejoin:round;">
</g>
<g style="fill:#840000; fill-opacity:1.0; 
stroke:#840000; stroke-width:39.3701; stroke-opacity:1; 
stroke-linecap:round; stroke-linejoin:round;">
<polyline style="fill-rule:evenodd;"
points="11451,4657
12002,4657
12002,5208
11451,5208
11451,4657
" /> 
<circle cx="11726.8" cy="5916.93" r="275.591" /> 
<circle cx="11726.8" cy="6704.33" r="275.591" /> 
<circle cx="11726.8" cy="7688.58" r="275.591" /> 
<circle cx="10659.9" cy="8897.64" r="629.921" /> 
<circle cx="10659.9" cy="3723.62" r="629.921" /> 
<polyline style="fill-rule:evenodd;"
points="18380,4676
18931,4676
18931,5227
18380,5227
18380,4676
" /> 
<circle cx="18656" cy="5936.61" r="275.591" /> 
<circle cx="18656" cy="6724.02" r="275.591" /> 
<circle cx="18656" cy="7708.27" r="275.591" /> 
<circle cx="19722.9" cy="8917.32" r="629.921" /> 
<circle cx="19722.9" cy="3743.31" r="629.921" /> 
<circle cx="21687.5" cy="7708.27" r="275.591" /> 
<circle cx="21687.5" cy="6724.02" r="275.591" /> 
<circle cx="21687.5" cy="5936.61" r="275.591" /> 
<polyline style="fill-rule:evenodd;"
points="21963,5227
21411,5227
21411,4676
21963,4676
21963,5227
" /> 
</g>
<g style="fill:#840000; fill-opacity:1.0; 
stroke:#840000; stroke-width:590.551; stroke-opacity:1; 
stroke-linecap:round; stroke-linejoin:round;">
</g>
<g style="fill:#840000; fill-opacity:0.0; 
stroke:#840000; stroke-width:590.551; stroke-opacity:1; 
stroke-linecap:round; stroke-linejoin:round;">
<path d="M22120 4027
L22907 4027
" />
<path d="M22120 8633
L22907 8633
" />
</g>
<g style="fill:#840000; fill-opacity:0.0; 
stroke:#840000; stroke-width:39.3701; stroke-opacity:1; 
stroke-linecap:round; stroke-linejoin:round;">
</g>
<g style="fill:#840000; fill-opacity:1.0; 
stroke:#840000; stroke-width:39.3701; stroke-opacity:1; 
stroke-linecap:round; stroke-linejoin:round;">
<circle cx="22514.2" cy="7235.83" r="196.85" /> 
<circle cx="22514.2" cy="5424.8" r="196.85" /> 
<circle cx="8734.7" cy="7727.95" r="275.591" /> 
<circle cx="8734.7" cy="6743.7" r="275.591" /> 
<circle cx="8734.7" cy="5956.3" r="275.591" /> 
<polyline style="fill-rule:evenodd;"
points="9010,5247
8459,5247
8459,4696
9010,4696
9010,5247
" /> 
</g>
<g style="fill:#840000; fill-opacity:1.0; 
stroke:#840000; stroke-width:590.551; stroke-opacity:1; 
stroke-linecap:round; stroke-linejoin:round;">
</g>
<g style="fill:#840000; fill-opacity:0.0; 
stroke:#840000; stroke-width:590.551; stroke-opacity:1; 
stroke-linecap:round; stroke-linejoin:round;">
<path d="M7514 4046
L8301 4046
" />
<path d="M7514 8653
L8301 8653
" />
</g>
<g style="fill:#840000; fill-opacity:0.0; 
stroke:#840000; stroke-width:39.3701; stroke-opacity:1; 
stroke-linecap:round; stroke-linejoin:round;">
</g>
<g style="fill:#840000; fill-opacity:1.0; 
stroke:#840000; stroke-width:39.3701; stroke-opacity:1; 
stroke-linecap:round; stroke-linejoin:round;">
<circle cx="7907.93" cy="7255.51" r="196.85" /> 
<circle cx="7907.93" cy="5444.49" r="196.85" /> 
</g>
<g style="fill:#008400; fill-opacity:1.0; 
stroke:#008400; stroke-width:39.3701; stroke-opacity:1; 
stroke-linecap:round; stroke-linejoin:round;">
<polyline style="fill-rule:evenodd;"
points="21234,5759
20289,5759
20289,5601
21234,5601
21234,5759
" /> 
<polyline style="fill-rule:evenodd;"
points="21234,6074
20289,6074
20289,5916
21234,5916
21234,6074
" /> 
<polyline style="fill-rule:evenodd;"
points="21234,6389
20289,6389
20289,6231
21234,6231
21234,6389
" /> 
<polyline style="fill-rule:evenodd;"
points="21234,6704
20289,6704
20289,6546
21234,6546
21234,6704
" /> 
<polyline style="fill-rule:evenodd;"
points="21234,7019
20289,7019
20289,6861
21234,6861
21234,7019
" /> 
<polyline style="fill-rule:evenodd;"
points="23400,8416
22455,8416
22455,7668
23400,7668
23400,8416
" /> 
<polyline style="fill-rule:evenodd;"
points="21234,8416
20289,8416
20289,7668
21234,7668
21234,8416
" /> 
<polyline style="fill-rule:evenodd;"
points="21234,4952
20289,4952
20289,4204
21234,4204
21234,4952
" /> 
<polyline style="fill-rule:evenodd;"
points="23400,4952
22455,4952
22455,4204
23400,4204
23400,4952
" /> 
</g>
<g style="fill:#840000; fill-opacity:1.0; 
stroke:#840000; stroke-width:393.701; stroke-opacity:1; 
stroke-linecap:round; stroke-linejoin:round;">
</g>
<g style="fill:#840000; fill-opacity:0.0; 
stroke:#840000; stroke-width:393.701; stroke-opacity:1; 
stroke-linecap:round; stroke-linejoin:round;">
<path d="M20279 2038
L20279 2432
" />
<path d="M22504 2038
L22504 2432
" />
</g>
<g style="fill:#840000; fill-opacity:0.0; 
stroke:#840000; stroke-width:39.3701; stroke-opacity:1; 
stroke-linecap:round; stroke-linejoin:round;">
</g>
<g style="fill:#840000; fill-opacity:1.0; 
stroke:#840000; stroke-width:39.3701; stroke-opacity:1; 
stroke-linecap:round; stroke-linejoin:round;">
<circle cx="20604.8" cy="3023.23" r="78.7402" /> 
<circle cx="22179.6" cy="3023.23" r="78.7402" /> 
</g>
<g style="fill:#840000; fill-opacity:1.0; 
stroke:#840000; stroke-width:393.701; stroke-opacity:1; 
stroke-linecap:round; stroke-linejoin:round;">
</g>
<g style="fill:#840000; fill-opacity:0.0; 
stroke:#840000; stroke-width:393.701; stroke-opacity:1; 
stroke-linecap:round; stroke-linejoin:round;">
<path d="M10161 2432
L10161 2038
" />
</g>
<g style="fill:#008400; fill-opacity:0.0; 
stroke:#008400; stroke-width:39.3701; stroke-opacity:1; 
stroke-linecap:round; stroke-linejoin:round;">
</g>
<g style="fill:#008400; fill-opacity:1.0; 
stroke:#008400; stroke-width:39.3701; stroke-opacity:1; 
stroke-linecap:round; stroke-linejoin:round;">
<polyline style="fill-rule:evenodd;"
points="8596,2934
8596,3426
8478,3426
8478,2934
8596,2934
" /> 
<polyline style="fill-rule:evenodd;"
points="8852,2934
8852,3426
8734,3426
8734,2934
8852,2934
" /> 
<polyline style="fill-rule:evenodd;"
points="9108,2934
9108,3426
8990,3426
8990,2934
9108,2934
" /> 
<polyline style="fill-rule:evenodd;"
points="9364,2934
9364,3426
9246,3426
9246,2934
9364,2934
" /> 
<polyline style="fill-rule:evenodd;"
points="9620,2934
9620,3426
9502,3426
9502,2934
9620,2934
" /> 
</g>
<g style="fill:#840000; fill-opacity:1.0; 
stroke:#840000; stroke-width:393.701; stroke-opacity:1; 
stroke-linecap:round; stroke-linejoin:round;">
</g>
<g style="fill:#840000; fill-opacity:0.0; 
stroke:#840000; stroke-width:393.701; stroke-opacity:1; 
stroke-linecap:round; stroke-linejoin:round;">
<path d="M7937 2432
L7937 2038
" />
</g>
<g style="fill:#840000; fill-opacity:0.0; 
stroke:#840000; stroke-width:39.3701; stroke-opacity:1; 
stroke-linecap:round; stroke-linejoin:round;">
</g>
<g style="fill:#840000; fill-opacity:1.0; 
stroke:#840000; stroke-width:39.3701; stroke-opacity:1; 
stroke-linecap:round; stroke-linejoin:round;">
<circle cx="9837.06" cy="3023.23" r="78.7402" /> 
<circle cx="8262.26" cy="3023.23" r="78.7402" /> 
</g>
<g style="fill:#008400; fill-opacity:1.0; 
stroke:#008400; stroke-width:39.3701; stroke-opacity:1; 
stroke-linecap:round; stroke-linejoin:round;">
<polyline style="fill-rule:evenodd;"
points="8045,2905
8045,3338
7455,3338
7455,2905
8045,2905
" /> 
<polyline style="fill-rule:evenodd;"
points="10644,2905
10644,3338
10053,3338
10053,2905
10644,2905
" /> 
</g>
<g style="fill:#840000; fill-opacity:1.0; 
stroke:#840000; stroke-width:39.3701; stroke-opacity:1; 
stroke-linecap:round; stroke-linejoin:round;">
<polyline style="fill-rule:evenodd;"
points="14263,3598
15024,3598
15024,4239
14263,4239
14263,3598
" /> 
</g>
<g style="fill:#840000; fill-opacity:1.0; 
stroke:#840000; stroke-width:680; stroke-opacity:1; 
stroke-linecap:round; stroke-linejoin:round;">
</g>
<g style="fill:#840000; fill-opacity:0.0; 
stroke:#840000; stroke-width:680; stroke-opacity:1; 
stroke-linecap:round; stroke-linejoin:round;">
<path d="M14704 4918
L14584 4918
" />
<path d="M14704 5918
L14584 5918
" />
<path d="M14704 6918
L14584 6918
" />
<path d="M14704 7918
L14584 7918
" />
<path d="M14704 8918
L14584 8918
" />
</g>
<g style="fill:#840000; fill-opacity:0.0; 
stroke:#840000; stroke-width:39.3701; stroke-opacity:1; 
stroke-linecap:round; stroke-linejoin:round;">
</g>
<g style="fill:#840000; fill-opacity:1.0; 
stroke:#840000; stroke-width:39.3701; stroke-opacity:1; 
stroke-linecap:round; stroke-linejoin:round;">
<polyline style="fill-rule:evenodd;"
points="15513,3598
16274,3598
16274,4239
15513,4239
15513,3598
" /> 
</g>
<g style="fill:#840000; fill-opacity:1.0; 
stroke:#840000; stroke-width:680; stroke-opacity:1; 
stroke-linecap:round; stroke-linejoin:round;">
</g>
<g style="fill:#840000; fill-opacity:0.0; 
stroke:#840000; stroke-width:680; stroke-opacity:1; 
stroke-linecap:round; stroke-linejoin:round;">
<path d="M15954 4918
L15834 4918
" />
<path d="M15954 5918
L15834 5918
" />
<path d="M15954 6918
L15834 6918
" />
<path d="M15954 7918
L15834 7918
" />
<path d="M15954 8918
L15834 8918
" />
</g>
<g style="fill:#840000; fill-opacity:0.0; 
stroke:#840000; stroke-width:39.3701; stroke-opacity:1; 
stroke-linecap:round; stroke-linejoin:round;">
</g>
<g style="fill:#840000; fill-opacity:1.0; 
stroke:#840000; stroke-width:39.3701; stroke-opacity:1; 
stroke-linecap:round; stroke-linejoin:round;">
<polyline style="fill-rule:evenodd;"
points="11451,4657
12002,4657
12002,5208
11451,5208
11451,4657
" /> 
<circle cx="11726.8" cy="5916.93" r="275.591" /> 
<circle cx="11726.8" cy="6704.33" r="275.591" /> 
<circle cx="11726.8" cy="7688.58" r="275.591" /> 
<circle cx="10659.9" cy="8897.64" r="629.921" /> 
<circle cx="10659.9" cy="3723.62" r="629.921" /> 
<polyline style="fill-rule:evenodd;"
points="18380,4676
18931,4676
18931,5227
18380,5227
18380,4676
" /> 
<circle cx="18656" cy="5936.61" r="275.591" /> 
<circle cx="18656" cy="6724.02" r="275.591" /> 
<circle cx="18656" cy="7708.27" r="275.591" /> 
<circle cx="19722.9" cy="8917.32" r="629.921" /> 
<circle cx="19722.9" cy="3743.31" r="629.921" /> 
<circle cx="21687.5" cy="7708.27" r="275.591" /> 
<circle cx="21687.5" cy="6724.02" r="275.591" /> 
<circle cx="21687.5" cy="5936.61" r="275.591" /> 
<polyline style="fill-rule:evenodd;"
points="21963,5227
21411,5227
21411,4676
21963,4676
21963,5227
" /> 
</g>
<g style="fill:#840000; fill-opacity:1.0; 
stroke:#840000; stroke-width:590.551; stroke-opacity:1; 
stroke-linecap:round; stroke-linejoin:round;">
</g>
<g style="fill:#840000; fill-opacity:0.0; 
stroke:#840000; stroke-width:590.551; stroke-opacity:1; 
stroke-linecap:round; stroke-linejoin:round;">
<path d="M22120 4027
L22907 4027
" />
<path d="M22120 8633
L22907 8633
" />
</g>
<g style="fill:#840000; fill-opacity:0.0; 
stroke:#840000; stroke-width:39.3701; stroke-opacity:1; 
stroke-linecap:round; stroke-linejoin:round;">
</g>
<g style="fill:#840000; fill-opacity:1.0; 
stroke:#840000; stroke-width:39.3701; stroke-opacity:1; 
stroke-linecap:round; stroke-linejoin:round;">
<circle cx="8734.7" cy="7727.95" r="275.591" /> 
<circle cx="8734.7" cy="6743.7" r="275.591" /> 
<circle cx="8734.7" cy="5956.3" r="275.591" /> 
<polyline style="fill-rule:evenodd;"
points="9010,5247
8459,5247
8459,4696
9010,4696
9010,5247
" /> 
</g>
<g style="fill:#840000; fill-opacity:1.0; 
stroke:#840000; stroke-width:590.551; stroke-opacity:1; 
stroke-linecap:round; stroke-linejoin:round;">
</g>
<g style="fill:#840000; fill-opacity:0.0; 
stroke:#840000; stroke-width:590.551; stroke-opacity:1; 
stroke-linecap:round; stroke-linejoin:round;">
<path d="M7514 4046
L8301 4046
" />
<path d="M7514 8653
L8301 8653
" />
</g>
<g style="fill:#008400; fill-opacity:0.0; 
stroke:#008400; stroke-width:39.3701; stroke-opacity:1; 
stroke-linecap:round; stroke-linejoin:round;">
</g>
<g style="fill:#008400; fill-opacity:1.0; 
stroke:#008400; stroke-width:39.3701; stroke-opacity:1; 
stroke-linecap:round; stroke-linejoin:round;">
<polyline style="fill-rule:evenodd;"
points="21234,5759
20289,5759
20289,5601
21234,5601
21234,5759
" /> 
<polyline style="fill-rule:evenodd;"
points="21234,6074
20289,6074
20289,5916
21234,5916
21234,6074
" /> 
<polyline style="fill-rule:evenodd;"
points="21234,6389
20289,6389
20289,6231
21234,6231
21234,6389
" /> 
<polyline style="fill-rule:evenodd;"
points="21234,6704
20289,6704
20289,6546
21234,6546
21234,6704
" /> 
<polyline style="fill-rule:evenodd;"
points="21234,7019
20289,7019
20289,6861
21234,6861
21234,7019
" /> 
<polyline style="fill-rule:evenodd;"
points="23400,8416
22455,8416
22455,7668
23400,7668
23400,8416
" /> 
<polyline style="fill-rule:evenodd;"
points="21234,8416
20289,8416
20289,7668
21234,7668
21234,8416
" /> 
<polyline style="fill-rule:evenodd;"
points="21234,4952
20289,4952
20289,4204
21234,4204
21234,4952
" /> 
<polyline style="fill-rule:evenodd;"
points="23400,4952
22455,4952
22455,4204
23400,4204
23400,4952
" /> 
</g>
<g style="fill:#840000; fill-opacity:1.0; 
stroke:#840000; stroke-width:393.701; stroke-opacity:1; 
stroke-linecap:round; stroke-linejoin:round;">
</g>
<g style="fill:#840000; fill-opacity:0.0; 
stroke:#840000; stroke-width:393.701; stroke-opacity:1; 
stroke-linecap:round; stroke-linejoin:round;">
<path d="M20279 2038
L20279 2432
" />
<path d="M22504 2038
L22504 2432
" />
<path d="M10161 2432
L10161 2038
" />
</g>
<g style="fill:#008400; fill-opacity:0.0; 
stroke:#008400; stroke-width:39.3701; stroke-opacity:1; 
stroke-linecap:round; stroke-linejoin:round;">
</g>
<g style="fill:#008400; fill-opacity:1.0; 
stroke:#008400; stroke-width:39.3701; stroke-opacity:1; 
stroke-linecap:round; stroke-linejoin:round;">
<polyline style="fill-rule:evenodd;"
points="8596,2934
8596,3426
8478,3426
8478,2934
8596,2934
" /> 
<polyline style="fill-rule:evenodd;"
points="8852,2934
8852,3426
8734,3426
8734,2934
8852,2934
" /> 
<polyline style="fill-rule:evenodd;"
points="9108,2934
9108,3426
8990,3426
8990,2934
9108,2934
" /> 
<polyline style="fill-rule:evenodd;"
points="9364,2934
9364,3426
9246,3426
9246,2934
9364,2934
" /> 
<polyline style="fill-rule:evenodd;"
points="9620,2934
9620,3426
9502,3426
9502,2934
9620,2934
" /> 
</g>
<g style="fill:#840000; fill-opacity:1.0; 
stroke:#840000; stroke-width:393.701; stroke-opacity:1; 
stroke-linecap:round; stroke-linejoin:round;">
</g>
<g style="fill:#840000; fill-opacity:0.0; 
stroke:#840000; stroke-width:393.701; stroke-opacity:1; 
stroke-linecap:round; stroke-linejoin:round;">
<path d="M7937 2432
L7937 2038
" />
</g>
<g style="fill:#008400; fill-opacity:0.0; 
stroke:#008400; stroke-width:39.3701; stroke-opacity:1; 
stroke-linecap:round; stroke-linejoin:round;">
</g>
<g style="fill:#008400; fill-opacity:1.0; 
stroke:#008400; stroke-width:39.3701; stroke-opacity:1; 
stroke-linecap:round; stroke-linejoin:round;">
<polyline style="fill-rule:evenodd;"
points="8045,2905
8045,3338
7455,3338
7455,2905
8045,2905
" /> 
<polyline style="fill-rule:evenodd;"
points="10644,2905
10644,3338
10053,3338
10053,2905
10644,2905
" /> 
</g>
<g style="fill:#C2C2C2; fill-opacity:1.0; 
stroke:#C2C2C2; stroke-width:39.3701; stroke-opacity:1; 
stroke-linecap:round; stroke-linejoin:round;">
<circle cx="10454.2" cy="6807.32" r="155.315" /> 
<circle cx="19994.2" cy="6768.9" r="155.315" /> 
</g>
<g style="fill:#008400; fill-opacity:1.0; 
stroke:#008400; stroke-width:100; stroke-opacity:1; 
stroke-linecap:round; stroke-linejoin:round;">
</g>
<g style="fill:#008400; fill-opacity:0.0; 
stroke:#008400; stroke-width:100; stroke-opacity:1; 
stroke-linecap:round; stroke-linejoin:round;">
<path d="M8754 4949
L8736 4966
" />
<path d="M8754 3857
L8754 4949
" />
<path d="M8535 3639
L8754 3857
" />
<path d="M8535 3187
L8535 3639
" />
<path d="M8791 3187
L8791 3604
" />
<path d="M9184 5503
L8736 5951
" />
<path d="M9184 4607
L9184 5503
" />
<path d="M8954 4377
L9184 4607
" />
<path d="M8954 3767
L8954 4377
" />
<path d="M8791 3604
L8954 3767
" />
<path d="M9047 3187
L9047 3560
" />
<path d="M9047 3560
L9164 3677
" />
<path d="M9384 6091
L8736 6738
" />
<path d="M9384 4517
L9384 6091
" />
<path d="M9164 4297
L9384 4517
" />
<path d="M9164 3677
L9164 4297
" />
<path d="M9559 3492
L9584 3517
" />
<path d="M9584 3517
L9584 4137
" />
<path d="M9584 4137
L9804 4357
" />
<path d="M9559 3187
L9559 3492
" />
<path d="M11736 7609
L11736 7722
" />
<path d="M9804 5677
L11736 7609
" />
<path d="M9804 4357
L9804 5677
" />
<path d="M10159 2941
L10346 3128
" />
<path d="M7935 2941
L7748 3128
" />
</g>
<g style="fill:#008400; fill-opacity:0.0; 
stroke:#008400; stroke-width:200; stroke-opacity:1; 
stroke-linecap:round; stroke-linejoin:round;">
<path d="M7909 3289
L7748 3128
" />
<path d="M7909 4041
L7909 3289
" />
<path d="M7748 2429
L7935 2242
" />
<path d="M7748 3128
L7748 2429
" />
<path d="M10159 2941
L10346 3128
" />
<path d="M10159 2242
L10159 2941
" />
<path d="M10346 3434
L10669 3757
" />
<path d="M10346 3128
L10346 3434
" />
</g>
<g style="fill:#008400; fill-opacity:0.0; 
stroke:#008400; stroke-width:100; stroke-opacity:1; 
stroke-linecap:round; stroke-linejoin:round;">
<path d="M9594 5947
L10454 6807
" />
<path d="M9303 3516
L9374 3587
" />
<path d="M9374 3587
L9374 4217
" />
<path d="M9374 4217
L9594 4437
" />
<path d="M9594 4437
L9594 5947
" />
<path d="M9303 3187
L9303 3516
" />
</g>
<g style="fill:#008400; fill-opacity:0.0; 
stroke:#008400; stroke-width:200; stroke-opacity:1; 
stroke-linecap:round; stroke-linejoin:round;">
<path d="M15894 3918
L17630 3918
" />
</g>
<g style="fill:#008400; fill-opacity:0.0; 
stroke:#008400; stroke-width:100; stroke-opacity:1; 
stroke-linecap:round; stroke-linejoin:round;">
<path d="M18673 4961
L20039 4961
" />
</g>
<g style="fill:#008400; fill-opacity:0.0; 
stroke:#008400; stroke-width:200; stroke-opacity:1; 
stroke-linecap:round; stroke-linejoin:round;">
<path d="M18673 4961
L19937 4961
" />
<path d="M17630 3918
L18673 4961
" />
<path d="M20657 5682
L20760 5682
" />
<path d="M20953 5682
L21673 4961
" />
<path d="M20760 5682
L20953 5682
" />
</g>
<g style="fill:#008400; fill-opacity:0.0; 
stroke:#008400; stroke-width:100; stroke-opacity:1; 
stroke-linecap:round; stroke-linejoin:round;">
<path d="M20039 4961
L20760 5682
" />
</g>
<g style="fill:#008400; fill-opacity:0.0; 
stroke:#008400; stroke-width:200; stroke-opacity:1; 
stroke-linecap:round; stroke-linejoin:round;">
<path d="M19937 4961
L20657 5682
" />
</g>
<g style="fill:#008400; fill-opacity:0.0; 
stroke:#008400; stroke-width:100; stroke-opacity:1; 
stroke-linecap:round; stroke-linejoin:round;">
<path d="M20760 5997
L21622 5997
" />
<path d="M15894 4918
L17646 4918
" />
<path d="M21622 5997
L21673 5946
" />
<path d="M18724 5997
L18673 5946
" />
<path d="M20760 5997
L18724 5997
" />
<path d="M17646 4918
L18673 5946
" />
<path d="M20760 6312
L19094 6312
" />
<path d="M20760 6312
L21252 6312
" />
<path d="M21252 6312
L21673 6733
" />
<path d="M15894 5918
L17858 5918
" />
<path d="M19094 6312
L18673 6733
" />
<path d="M17858 5918
L18673 6733
" />
</g>
<g style="fill:#008400; fill-opacity:0.0; 
stroke:#008400; stroke-width:200; stroke-opacity:1; 
stroke-linecap:round; stroke-linejoin:round;">
<path d="M20898 6942
L21673 7717
" />
<path d="M20670 6942
L20760 6942
" />
<path d="M20760 6942
L20898 6942
" />
<path d="M19895 7717
L20670 6942
" />
<path d="M15894 7918
L18472 7918
" />
<path d="M18472 7918
L18673 7717
" />
<path d="M18673 7717
L19895 7717
" />
<path d="M22927 4578
L22927 5247
" />
<path d="M22947 5267
L22947 8023
" />
<path d="M22927 5247
L22947 5267
" />
<path d="M22947 8023
L22927 8042
" />
<path d="M22500 8469
L22925 8044
" />
<path d="M22500 8643
L22500 8469
" />
<path d="M22216 8926
L22500 8643
" />
<path d="M19740 8926
L22216 8926
" />
<path d="M19878 8926
L20760 8044
" />
<path d="M19740 8926
L19878 8926
" />
<path d="M20567 4580
L19740 3752
" />
<path d="M20760 4580
L20567 4580
" />
<path d="M22500 4154
L22925 4580
" />
<path d="M22500 4036
L22500 4154
" />
<path d="M20024 4036
L19740 3752
" />
<path d="M22500 4036
L20024 4036
" />
<path d="M15902 8926
L15894 8918
" />
<path d="M19740 8926
L15902 8926
" />
</g>
<g style="fill:#008400; fill-opacity:0.0; 
stroke:#008400; stroke-width:100; stroke-opacity:1; 
stroke-linecap:round; stroke-linejoin:round;">
<path d="M19994 6768
L19294 6768
" />
<path d="M20135 6627
L19994 6768
" />
<path d="M20760 6627
L20135 6627
" />
<path d="M19294 6768
L18844 7218
" />
<path d="M18844 7218
L16194 7218
" />
<path d="M16194 7218
L15894 6918
" />
</g>
<g style="fill:#FFFFFF; fill-opacity:0.0; 
stroke:#FFFFFF; stroke-width:39.3701; stroke-opacity:1; 
stroke-linecap:round; stroke-linejoin:round;">
</g>
<g style="fill:#FFFFFF; fill-opacity:1.0; 
stroke:#FFFFFF; stroke-width:39.3701; stroke-opacity:1; 
stroke-linecap:round; stroke-linejoin:round;">
<circle cx="10454.2" cy="6807.32" r="105.315" /> 
<circle cx="19994.2" cy="6768.9" r="105.315" /> 
<circle cx="14644.2" cy="3918.9" r="180.315" /> 
<circle cx="14644.2" cy="4918.9" r="180.315" /> 
<circle cx="14644.2" cy="5918.9" r="180.315" /> 
<circle cx="14644.2" cy="6918.9" r="180.315" /> 
<circle cx="14644.2" cy="7918.9" r="180.315" /> 
<circle cx="14644.2" cy="8918.9" r="180.315" /> 
<circle cx="15894.2" cy="3918.9" r="180.315" /> 
<circle cx="15894.2" cy="4918.9" r="180.315" /> 
<circle cx="15894.2" cy="5918.9" r="180.315" /> 
<circle cx="15894.2" cy="6918.9" r="180.315" /> 
<circle cx="15894.2" cy="7918.9" r="180.315" /> 
<circle cx="15894.2" cy="8918.9" r="180.315" /> 
<circle cx="11726.8" cy="4932.68" r="157.48" /> 
<circle cx="11726.8" cy="5916.93" r="157.48" /> 
<circle cx="11726.8" cy="6704.33" r="157.48" /> 
<circle cx="11726.8" cy="7688.58" r="157.48" /> 
<circle cx="10659.9" cy="8897.64" r="433.071" /> 
<circle cx="10659.9" cy="3723.62" r="433.071" /> 
<circle cx="18656" cy="4952.36" r="157.48" /> 
<circle cx="18656" cy="5936.61" r="157.48" /> 
<circle cx="18656" cy="6724.02" r="157.48" /> 
<circle cx="18656" cy="7708.27" r="157.48" /> 
<circle cx="19722.9" cy="8917.32" r="433.071" /> 
<circle cx="19722.9" cy="3743.31" r="433.071" /> 
<circle cx="21687.5" cy="7708.27" r="157.48" /> 
<circle cx="21687.5" cy="6724.02" r="157.48" /> 
<circle cx="21687.5" cy="5936.61" r="157.48" /> 
<circle cx="21687.5" cy="4952.36" r="157.48" /> 
</g>
<g style="fill:#FFFFFF; fill-opacity:1.0; 
stroke:#FFFFFF; stroke-width:354.331; stroke-opacity:1; 
stroke-linecap:round; stroke-linejoin:round;">
</g>
<g style="fill:#FFFFFF; fill-opacity:0.0; 
stroke:#FFFFFF; stroke-width:354.331; stroke-opacity:1; 
stroke-linecap:round; stroke-linejoin:round;">
<path d="M22199 4027
L22829 4027
" />
<path d="M22199 8633
L22829 8633
" />
</g>
<g style="fill:#FFFFFF; fill-opacity:0.0; 
stroke:#FFFFFF; stroke-width:39.3701; stroke-opacity:1; 
stroke-linecap:round; stroke-linejoin:round;">
</g>
<g style="fill:#FFFFFF; fill-opacity:1.0; 
stroke:#FFFFFF; stroke-width:39.3701; stroke-opacity:1; 
stroke-linecap:round; stroke-linejoin:round;">
<circle cx="22514.2" cy="7235.83" r="196.85" /> 
<circle cx="22514.2" cy="5424.8" r="196.85" /> 
<circle cx="8734.7" cy="7727.95" r="157.48" /> 
<circle cx="8734.7" cy="6743.7" r="157.48" /> 
<circle cx="8734.7" cy="5956.3" r="157.48" /> 
<circle cx="8734.7" cy="4972.05" r="157.48" /> 
</g>
<g style="fill:#FFFFFF; fill-opacity:1.0; 
stroke:#FFFFFF; stroke-width:354.331; stroke-opacity:1; 
stroke-linecap:round; stroke-linejoin:round;">
</g>
<g style="fill:#FFFFFF; fill-opacity:0.0; 
stroke:#FFFFFF; stroke-width:354.331; stroke-opacity:1; 
stroke-linecap:round; stroke-linejoin:round;">
<path d="M7592 4046
L8222 4046
" />
<path d="M7592 8653
L8222 8653
" />
</g>
<g style="fill:#FFFFFF; fill-opacity:0.0; 
stroke:#FFFFFF; stroke-width:39.3701; stroke-opacity:1; 
stroke-linecap:round; stroke-linejoin:round;">
</g>
<g style="fill:#FFFFFF; fill-opacity:1.0; 
stroke:#FFFFFF; stroke-width:39.3701; stroke-opacity:1; 
stroke-linecap:round; stroke-linejoin:round;">
<circle cx="7907.93" cy="7255.51" r="196.85" /> 
<circle cx="7907.93" cy="5444.49" r="196.85" /> 
</g>
<g style="fill:#FFFFFF; fill-opacity:1.0; 
stroke:#FFFFFF; stroke-width:196.85; stroke-opacity:1; 
stroke-linecap:round; stroke-linejoin:round;">
</g>
<g style="fill:#FFFFFF; fill-opacity:0.0; 
stroke:#FFFFFF; stroke-width:196.85; stroke-opacity:1; 
stroke-linecap:round; stroke-linejoin:round;">
<path d="M20279 2098
L20279 2373
" />
<path d="M22504 2098
L22504 2373
" />
</g>
<g style="fill:#FFFFFF; fill-opacity:0.0; 
stroke:#FFFFFF; stroke-width:39.3701; stroke-opacity:1; 
stroke-linecap:round; stroke-linejoin:round;">
</g>
<g style="fill:#FFFFFF; fill-opacity:1.0; 
stroke:#FFFFFF; stroke-width:39.3701; stroke-opacity:1; 
stroke-linecap:round; stroke-linejoin:round;">
<circle cx="20604.8" cy="3023.23" r="78.74" /> 
<circle cx="22179.6" cy="3023.23" r="78.74" /> 
</g>
<g style="fill:#FFFFFF; fill-opacity:1.0; 
stroke:#FFFFFF; stroke-width:196.85; stroke-opacity:1; 
stroke-linecap:round; stroke-linejoin:round;">
</g>
<g style="fill:#FFFFFF; fill-opacity:0.0; 
stroke:#FFFFFF; stroke-width:196.85; stroke-opacity:1; 
stroke-linecap:round; stroke-linejoin:round;">
<path d="M10161 2373
L10161 2098
" />
<path d="M7937 2373
L7937 2098
" />
</g>
<g style="fill:#FFFFFF; fill-opacity:0.0; 
stroke:#FFFFFF; stroke-width:39.3701; stroke-opacity:1; 
stroke-linecap:round; stroke-linejoin:round;">
</g>
<g style="fill:#FFFFFF; fill-opacity:1.0; 
stroke:#FFFFFF; stroke-width:39.3701; stroke-opacity:1; 
stroke-linecap:round; stroke-linejoin:round;">
<circle cx="9837.06" cy="3023.23" r="78.74" /> 
<circle cx="8262.26" cy="3023.23" r="78.74" /> 
</g>
<g style="fill:#840000; fill-opacity:1.0; 
stroke:#840000; stroke-width:39.3701; stroke-opacity:1; 
stroke-linecap:round; stroke-linejoin:round;">
<polyline style="fill-rule:evenodd;"
points="14263,3598
15024,3598
15024,4239
14263,4239
14263,3598
" /> 
</g>
<g style="fill:#840000; fill-opacity:1.0; 
stroke:#840000; stroke-width:680; stroke-opacity:1; 
stroke-linecap:round; stroke-linejoin:round;">
</g>
<g style="fill:#840000; fill-opacity:0.0; 
stroke:#840000; stroke-width:680; stroke-opacity:1; 
stroke-linecap:round; stroke-linejoin:round;">
<path d="M14704 4918
L14584 4918
" />
<path d="M14704 5918
L14584 5918
" />
<path d="M14704 6918
L14584 6918
" />
<path d="M14704 7918
L14584 7918
" />
<path d="M14704 8918
L14584 8918
" />
</g>
<g style="fill:#840000; fill-opacity:0.0; 
stroke:#840000; stroke-width:39.3701; stroke-opacity:1; 
stroke-linecap:round; stroke-linejoin:round;">
</g>
<g style="fill:#840000; fill-opacity:1.0; 
stroke:#840000; stroke-width:39.3701; stroke-opacity:1; 
stroke-linecap:round; stroke-linejoin:round;">
<polyline style="fill-rule:evenodd;"
points="15513,3598
16274,3598
16274,4239
15513,4239
15513,3598
" /> 
</g>
<g style="fill:#840000; fill-opacity:1.0; 
stroke:#840000; stroke-width:680; stroke-opacity:1; 
stroke-linecap:round; stroke-linejoin:round;">
</g>
<g style="fill:#840000; fill-opacity:0.0; 
stroke:#840000; stroke-width:680; stroke-opacity:1; 
stroke-linecap:round; stroke-linejoin:round;">
<path d="M15954 4918
L15834 4918
" />
<path d="M15954 5918
L15834 5918
" />
<path d="M15954 6918
L15834 6918
" />
<path d="M15954 7918
L15834 7918
" />
<path d="M15954 8918
L15834 8918
" />
</g>
<g style="fill:#840000; fill-opacity:0.0; 
stroke:#840000; stroke-width:39.3701; stroke-opacity:1; 
stroke-linecap:round; stroke-linejoin:round;">
</g>
<g style="fill:#840000; fill-opacity:1.0; 
stroke:#840000; stroke-width:39.3701; stroke-opacity:1; 
stroke-linecap:round; stroke-linejoin:round;">
<polyline style="fill-rule:evenodd;"
points="11451,4657
12002,4657
12002,5208
11451,5208
11451,4657
" /> 
<circle cx="11726.8" cy="5916.93" r="275.591" /> 
<circle cx="11726.8" cy="6704.33" r="275.591" /> 
<circle cx="11726.8" cy="7688.58" r="275.591" /> 
<circle cx="10659.9" cy="8897.64" r="629.921" /> 
<circle cx="10659.9" cy="3723.62" r="629.921" /> 
<polyline style="fill-rule:evenodd;"
points="18380,4676
18931,4676
18931,5227
18380,5227
18380,4676
" /> 
<circle cx="18656" cy="5936.61" r="275.591" /> 
<circle cx="18656" cy="6724.02" r="275.591" /> 
<circle cx="18656" cy="7708.27" r="275.591" /> 
<circle cx="19722.9" cy="8917.32" r="629.921" /> 
<circle cx="19722.9" cy="3743.31" r="629.921" /> 
<circle cx="21687.5" cy="7708.27" r="275.591" /> 
<circle cx="21687.5" cy="6724.02" r="275.591" /> 
<circle cx="21687.5" cy="5936.61" r="275.591" /> 
<polyline style="fill-rule:evenodd;"
points="21963,5227
21411,5227
21411,4676
21963,4676
21963,5227
" /> 
</g>
<g style="fill:#840000; fill-opacity:1.0; 
stroke:#840000; stroke-width:590.551; stroke-opacity:1; 
stroke-linecap:round; stroke-linejoin:round;">
</g>
<g style="fill:#840000; fill-opacity:0.0; 
stroke:#840000; stroke-width:590.551; stroke-opacity:1; 
stroke-linecap:round; stroke-linejoin:round;">
<path d="M22120 4027
L22907 4027
" />
<path d="M22120 8633
L22907 8633
" />
</g>
<g style="fill:#840000; fill-opacity:0.0; 
stroke:#840000; stroke-width:39.3701; stroke-opacity:1; 
stroke-linecap:round; stroke-linejoin:round;">
</g>
<g style="fill:#840000; fill-opacity:1.0; 
stroke:#840000; stroke-width:39.3701; stroke-opacity:1; 
stroke-linecap:round; stroke-linejoin:round;">
<circle cx="8734.7" cy="7727.95" r="275.591" /> 
<circle cx="8734.7" cy="6743.7" r="275.591" /> 
<circle cx="8734.7" cy="5956.3" r="275.591" /> 
<polyline style="fill-rule:evenodd;"
points="9010,5247
8459,5247
8459,4696
9010,4696
9010,5247
" /> 
</g>
<g style="fill:#840000; fill-opacity:1.0; 
stroke:#840000; stroke-width:590.551; stroke-opacity:1; 
stroke-linecap:round; stroke-linejoin:round;">
</g>
<g style="fill:#840000; fill-opacity:0.0; 
stroke:#840000; stroke-width:590.551; stroke-opacity:1; 
stroke-linecap:round; stroke-linejoin:round;">
<path d="M7514 4046
L8301 4046
" />
<path d="M7514 8653
L8301 8653
" />
</g>
<g style="fill:#840000; fill-opacity:0.0; 
stroke:#840000; stroke-width:39.3701; stroke-opacity:1; 
stroke-linecap:round; stroke-linejoin:round;">
</g>
<g style="fill:#840000; fill-opacity:1.0; 
stroke:#840000; stroke-width:39.3701; stroke-opacity:1; 
stroke-linecap:round; stroke-linejoin:round;">
<polyline style="fill-rule:evenodd;"
points="10132,5818
9187,5818
9187,5661
10132,5661
10132,5818
" /> 
<polyline style="fill-rule:evenodd;"
points="10132,6133
9187,6133
9187,5975
10132,5975
10132,6133
" /> 
<polyline style="fill-rule:evenodd;"
points="10132,6448
9187,6448
9187,6290
10132,6290
10132,6448
" /> 
<polyline style="fill-rule:evenodd;"
points="10132,6763
9187,6763
9187,6605
10132,6605
10132,6763
" /> 
<polyline style="fill-rule:evenodd;"
points="10132,7078
9187,7078
9187,6920
10132,6920
10132,7078
" /> 
<polyline style="fill-rule:evenodd;"
points="7966,8475
7022,8475
7022,7727
7966,7727
7966,8475
" /> 
<polyline style="fill-rule:evenodd;"
points="10132,8475
9187,8475
9187,7727
10132,7727
10132,8475
" /> 
<polyline style="fill-rule:evenodd;"
points="10132,5011
9187,5011
9187,4263
10132,4263
10132,5011
" /> 
<polyline style="fill-rule:evenodd;"
points="7966,5011
7022,5011
7022,4263
7966,4263
7966,5011
" /> 
</g>
<g style="fill:#840000; fill-opacity:1.0; 
stroke:#840000; stroke-width:393.701; stroke-opacity:1; 
stroke-linecap:round; stroke-linejoin:round;">
</g>
<g style="fill:#840000; fill-opacity:0.0; 
stroke:#840000; stroke-width:393.701; stroke-opacity:1; 
stroke-linecap:round; stroke-linejoin:round;">
<path d="M20279 2038
L20279 2432
" />
</g>
<g style="fill:#840000; fill-opacity:0.0; 
stroke:#840000; stroke-width:39.3701; stroke-opacity:1; 
stroke-linecap:round; stroke-linejoin:round;">
</g>
<g style="fill:#840000; fill-opacity:1.0; 
stroke:#840000; stroke-width:39.3701; stroke-opacity:1; 
stroke-linecap:round; stroke-linejoin:round;">
<polyline style="fill-rule:evenodd;"
points="21844,3426
21844,2934
21963,2934
21963,3426
21844,3426
" /> 
<polyline style="fill-rule:evenodd;"
points="21589,3426
21589,2934
21707,2934
21707,3426
21589,3426
" /> 
<polyline style="fill-rule:evenodd;"
points="21333,3426
21333,2934
21451,2934
21451,3426
21333,3426
" /> 
<polyline style="fill-rule:evenodd;"
points="21077,3426
21077,2934
21195,2934
21195,3426
21077,3426
" /> 
<polyline style="fill-rule:evenodd;"
points="20821,3426
20821,2934
20939,2934
20939,3426
20821,3426
" /> 
</g>
<g style="fill:#840000; fill-opacity:1.0; 
stroke:#840000; stroke-width:393.701; stroke-opacity:1; 
stroke-linecap:round; stroke-linejoin:round;">
</g>
<g style="fill:#840000; fill-opacity:0.0; 
stroke:#840000; stroke-width:393.701; stroke-opacity:1; 
stroke-linecap:round; stroke-linejoin:round;">
<path d="M22504 2038
L22504 2432
" />
</g>
<g style="fill:#840000; fill-opacity:0.0; 
stroke:#840000; stroke-width:39.3701; stroke-opacity:1; 
stroke-linecap:round; stroke-linejoin:round;">
</g>
<g style="fill:#840000; fill-opacity:1.0; 
stroke:#840000; stroke-width:39.3701; stroke-opacity:1; 
stroke-linecap:round; stroke-linejoin:round;">
<polyline style="fill-rule:evenodd;"
points="22396,3338
22396,2905
22986,2905
22986,3338
22396,3338
" /> 
<polyline style="fill-rule:evenodd;"
points="19797,3338
19797,2905
20388,2905
20388,3338
19797,3338
" /> 
</g>
<g style="fill:#840000; fill-opacity:1.0; 
stroke:#840000; stroke-width:393.701; stroke-opacity:1; 
stroke-linecap:round; stroke-linejoin:round;">
</g>
<g style="fill:#840000; fill-opacity:0.0; 
stroke:#840000; stroke-width:393.701; stroke-opacity:1; 
stroke-linecap:round; stroke-linejoin:round;">
<path d="M10161 2432
L10161 2038
" />
<path d="M7937 2432
L7937 2038
" />
</g>
<g style="fill:#C2C2C2; fill-opacity:0.0; 
stroke:#C2C2C2; stroke-width:39.3701; stroke-opacity:1; 
stroke-linecap:round; stroke-linejoin:round;">
</g>
<g style="fill:#C2C2C2; fill-opacity:1.0; 
stroke:#C2C2C2; stroke-width:39.3701; stroke-opacity:1; 
stroke-linecap:round; stroke-linejoin:round;">
<circle cx="10454.2" cy="6807.32" r="155.315" /> 
<circle cx="19994.2" cy="6768.9" r="155.315" /> 
</g>
<g style="fill:#840000; fill-opacity:1.0; 
stroke:#840000; stroke-width:200; stroke-opacity:1; 
stroke-linecap:round; stroke-linejoin:round;">
</g>
<g style="fill:#840000; fill-opacity:0.0; 
stroke:#840000; stroke-width:200; stroke-opacity:1; 
stroke-linecap:round; stroke-linejoin:round;">
<path d="M14644 3918
L12740 3918
" />
<path d="M12740 3918
L11726 4932
" />
<path d="M9496 5726
L8736 4966
" />
<path d="M11736 4966
L10544 4966
" />
<path d="M9784 5726
L9677 5726
" />
<path d="M10544 4966
L9784 5726
" />
<path d="M9677 5726
L9496 5726
" />
</g>
<g style="fill:#840000; fill-opacity:0.0; 
stroke:#840000; stroke-width:100; stroke-opacity:1; 
stroke-linecap:round; stroke-linejoin:round;">
<path d="M14644 4918
L12724 4918
" />
<path d="M12724 4918
L11726 5916
" />
<path d="M9677 6041
L11646 6041
" />
<path d="M11646 6041
L11736 5951
" />
<path d="M8827 6041
L8736 5951
" />
<path d="M9677 6041
L8827 6041
" />
<path d="M14644 5918
L12512 5918
" />
<path d="M12512 5918
L11726 6704
" />
<path d="M9677 6356
L11354 6356
" />
<path d="M9677 6356
L9118 6356
" />
<path d="M11354 6356
L11736 6738
" />
<path d="M9118 6356
L8736 6738
" />
</g>
<g style="fill:#840000; fill-opacity:0.0; 
stroke:#840000; stroke-width:200; stroke-opacity:1; 
stroke-linecap:round; stroke-linejoin:round;">
<path d="M14644 7918
L11957 7918
" />
<path d="M11957 7918
L11726 7688
" />
<path d="M9813 6986
L9677 6986
" />
<path d="M10549 7722
L9813 6986
" />
<path d="M9677 6986
L9472 6986
" />
<path d="M9472 6986
L8736 7722
" />
<path d="M11736 7722
L10549 7722
" />
<path d="M7494 8101
L7494 7334
" />
<path d="M7474 7314
L7474 4657
" />
<path d="M7494 7334
L7474 7314
" />
<path d="M7474 4657
L7494 4637
" />
<path d="M14644 8918
L10681 8918
" />
<path d="M10681 8918
L10659 8897
" />
</g>
<g style="fill:#840000; fill-opacity:0.0; 
stroke:#840000; stroke-width:100; stroke-opacity:1; 
stroke-linecap:round; stroke-linejoin:round;">
<path d="M10755 9017
L10669 8931
" />
</g>
<g style="fill:#840000; fill-opacity:0.0; 
stroke:#840000; stroke-width:200; stroke-opacity:1; 
stroke-linecap:round; stroke-linejoin:round;">
<path d="M10544 3757
L9677 4624
" />
<path d="M10669 3757
L10544 3757
" />
<path d="M7512 4439
L7909 4041
" />
<path d="M7512 4624
L7512 4439
" />
<path d="M8193 8931
L7909 8647
" />
<path d="M10669 8931
L8193 8931
" />
<path d="M10520 8931
L9677 8088
" />
<path d="M10669 8931
L10520 8931
" />
<path d="M7909 8486
L7512 8088
" />
<path d="M7909 8647
L7909 8486
" />
<path d="M8193 3757
L7909 4041
" />
<path d="M10669 3757
L8193 3757
" />
</g>
<g style="fill:#840000; fill-opacity:0.0; 
stroke:#840000; stroke-width:100; stroke-opacity:1; 
stroke-linecap:round; stroke-linejoin:round;">
<path d="M10454 6807
L10454 6809
" />
<path d="M14366 7196
L14644 6918
" />
<path d="M10841 7196
L14366 7196
" />
<path d="M10454 6809
L10841 7196
" />
<path d="M9677 6671
L10318 6671
" />
<path d="M10318 6671
L10454 6807
" />
<path d="M14434 7128
L14644 6918
" />
<path d="M21654 4942
L21673 4961
" />
<path d="M21654 3858
L21654 4942
" />
<path d="M21902 3611
L21654 3858
" />
<path d="M21902 3182
L21902 3611
" />
<path d="M21646 3182
L21646 3576
" />
<path d="M21646 3576
L21444 3778
" />
<path d="M21444 3778
L21444 4358
" />
<path d="M21444 4358
L21224 4578
" />
<path d="M21224 5496
L21673 5946
" />
<path d="M21224 4578
L21224 5496
" />
<path d="M21390 3182
L21390 3532
" />
<path d="M21390 3532
L21234 3688
" />
<path d="M21234 3688
L21234 4278
" />
<path d="M21234 4278
L21014 4498
" />
<path d="M21014 4498
L21014 6074
" />
<path d="M21014 6074
L21673 6733
" />
<path d="M18673 7619
L18673 7717
" />
<path d="M20594 5698
L18673 7619
" />
<path d="M20594 4318
L20594 5698
" />
<path d="M20878 3454
L20814 3518
" />
<path d="M20814 3518
L20814 4098
" />
<path d="M20878 3182
L20878 3454
" />
<path d="M20814 4098
L20594 4318
" />
</g>
<g style="fill:#840000; fill-opacity:0.0; 
stroke:#840000; stroke-width:200; stroke-opacity:1; 
stroke-linecap:round; stroke-linejoin:round;">
<path d="M20278 2936
L20091 3123
" />
<path d="M20278 2237
L20278 2936
" />
<path d="M20091 3402
L19740 3752
" />
<path d="M20091 3123
L20091 3402
" />
<path d="M22502 2936
L22689 3123
" />
<path d="M22502 2237
L22502 2936
" />
<path d="M22689 3847
L22500 4036
" />
<path d="M22689 3123
L22689 3847
" />
</g>
<g style="fill:#840000; fill-opacity:0.0; 
stroke:#840000; stroke-width:100; stroke-opacity:1; 
stroke-linecap:round; stroke-linejoin:round;">
<path d="M20804 4408
L20804 5958
" />
<path d="M21134 3488
L21024 3598
" />
<path d="M21024 3598
L21024 4188
" />
<path d="M21024 4188
L20804 4408
" />
<path d="M21134 3182
L21134 3488
" />
<path d="M20804 5958
L19994 6768
" />
</g>
<g style="fill:#FFFFFF; fill-opacity:0.0; 
stroke:#FFFFFF; stroke-width:39.3701; stroke-opacity:1; 
stroke-linecap:round; stroke-linejoin:round;">
</g>
<g style="fill:#FFFFFF; fill-opacity:1.0; 
stroke:#FFFFFF; stroke-width:39.3701; stroke-opacity:1; 
stroke-linecap:round; stroke-linejoin:round;">
<circle cx="10454.2" cy="6807.32" r="105.315" /> 
<circle cx="19994.2" cy="6768.9" r="105.315" /> 
<circle cx="14644.2" cy="3918.9" r="180.315" /> 
<circle cx="14644.2" cy="4918.9" r="180.315" /> 
<circle cx="14644.2" cy="5918.9" r="180.315" /> 
<circle cx="14644.2" cy="6918.9" r="180.315" /> 
<circle cx="14644.2" cy="7918.9" r="180.315" /> 
<circle cx="14644.2" cy="8918.9" r="180.315" /> 
<circle cx="15894.2" cy="3918.9" r="180.315" /> 
<circle cx="15894.2" cy="4918.9" r="180.315" /> 
<circle cx="15894.2" cy="5918.9" r="180.315" /> 
<circle cx="15894.2" cy="6918.9" r="180.315" /> 
<circle cx="15894.2" cy="7918.9" r="180.315" /> 
<circle cx="15894.2" cy="8918.9" r="180.315" /> 
<circle cx="11726.8" cy="4932.68" r="157.48" /> 
<circle cx="11726.8" cy="5916.93" r="157.48" /> 
<circle cx="11726.8" cy="6704.33" r="157.48" /> 
<circle cx="11726.8" cy="7688.58" r="157.48" /> 
<circle cx="10659.9" cy="8897.64" r="433.071" /> 
<circle cx="10659.9" cy="3723.62" r="433.071" /> 
<circle cx="18656" cy="4952.36" r="157.48" /> 
<circle cx="18656" cy="5936.61" r="157.48" /> 
<circle cx="18656" cy="6724.02" r="157.48" /> 
<circle cx="18656" cy="7708.27" r="157.48" /> 
<circle cx="19722.9" cy="8917.32" r="433.071" /> 
<circle cx="19722.9" cy="3743.31" r="433.071" /> 
<circle cx="21687.5" cy="7708.27" r="157.48" /> 
<circle cx="21687.5" cy="6724.02" r="157.48" /> 
<circle cx="21687.5" cy="5936.61" r="157.48" /> 
<circle cx="21687.5" cy="4952.36" r="157.48" /> 
</g>
<g style="fill:#FFFFFF; fill-opacity:1.0; 
stroke:#FFFFFF; stroke-width:354.331; stroke-opacity:1; 
stroke-linecap:round; stroke-linejoin:round;">
</g>
<g style="fill:#FFFFFF; fill-opacity:0.0; 
stroke:#FFFFFF; stroke-width:354.331; stroke-opacity:1; 
stroke-linecap:round; stroke-linejoin:round;">
<path d="M22199 4027
L22829 4027
" />
<path d="M22199 8633
L22829 8633
" />
</g>
<g style="fill:#FFFFFF; fill-opacity:0.0; 
stroke:#FFFFFF; stroke-width:39.3701; stroke-opacity:1; 
stroke-linecap:round; stroke-linejoin:round;">
</g>
<g style="fill:#FFFFFF; fill-opacity:1.0; 
stroke:#FFFFFF; stroke-width:39.3701; stroke-opacity:1; 
stroke-linecap:round; stroke-linejoin:round;">
<circle cx="22514.2" cy="7235.83" r="196.85" /> 
<circle cx="22514.2" cy="5424.8" r="196.85" /> 
<circle cx="8734.7" cy="7727.95" r="157.48" /> 
<circle cx="8734.7" cy="6743.7" r="157.48" /> 
<circle cx="8734.7" cy="5956.3" r="157.48" /> 
<circle cx="8734.7" cy="4972.05" r="157.48" /> 
</g>
<g style="fill:#FFFFFF; fill-opacity:1.0; 
stroke:#FFFFFF; stroke-width:354.331; stroke-opacity:1; 
stroke-linecap:round; stroke-linejoin:round;">
</g>
<g style="fill:#FFFFFF; fill-opacity:0.0; 
stroke:#FFFFFF; stroke-width:354.331; stroke-opacity:1; 
stroke-linecap:round; stroke-linejoin:round;">
<path d="M7592 4046
L8222 4046
" />
<path d="M7592 8653
L8222 8653
" />
</g>
<g style="fill:#FFFFFF; fill-opacity:0.0; 
stroke:#FFFFFF; stroke-width:39.3701; stroke-opacity:1; 
stroke-linecap:round; stroke-linejoin:round;">
</g>
<g style="fill:#FFFFFF; fill-opacity:1.0; 
stroke:#FFFFFF; stroke-width:39.3701; stroke-opacity:1; 
stroke-linecap:round; stroke-linejoin:round;">
<circle cx="7907.93" cy="7255.51" r="196.85" /> 
<circle cx="7907.93" cy="5444.49" r="196.85" /> 
</g>
<g style="fill:#FFFFFF; fill-opacity:1.0; 
stroke:#FFFFFF; stroke-width:196.85; stroke-opacity:1; 
stroke-linecap:round; stroke-linejoin:round;">
</g>
<g style="fill:#FFFFFF; fill-opacity:0.0; 
stroke:#FFFFFF; stroke-width:196.85; stroke-opacity:1; 
stroke-linecap:round; stroke-linejoin:round;">
<path d="M20279 2098
L20279 2373
" />
<path d="M22504 2098
L22504 2373
" />
</g>
<g style="fill:#FFFFFF; fill-opacity:0.0; 
stroke:#FFFFFF; stroke-width:39.3701; stroke-opacity:1; 
stroke-linecap:round; stroke-linejoin:round;">
</g>
<g style="fill:#FFFFFF; fill-opacity:1.0; 
stroke:#FFFFFF; stroke-width:39.3701; stroke-opacity:1; 
stroke-linecap:round; stroke-linejoin:round;">
<circle cx="20604.8" cy="3023.23" r="78.74" /> 
<circle cx="22179.6" cy="3023.23" r="78.74" /> 
</g>
<g style="fill:#FFFFFF; fill-opacity:1.0; 
stroke:#FFFFFF; stroke-width:196.85; stroke-opacity:1; 
stroke-linecap:round; stroke-linejoin:round;">
</g>
<g style="fill:#FFFFFF; fill-opacity:0.0; 
stroke:#FFFFFF; stroke-width:196.85; stroke-opacity:1; 
stroke-linecap:round; stroke-linejoin:round;">
<path d="M10161 2373
L10161 2098
" />
<path d="M7937 2373
L7937 2098
" />
</g>
<g style="fill:#FFFFFF; fill-opacity:0.0; 
stroke:#FFFFFF; stroke-width:39.3701; stroke-opacity:1; 
stroke-linecap:round; stroke-linejoin:round;">
</g>
<g style="fill:#FFFFFF; fill-opacity:1.0; 
stroke:#FFFFFF; stroke-width:39.3701; stroke-opacity:1; 
stroke-linecap:round; stroke-linejoin:round;">
<circle cx="9837.06" cy="3023.23" r="78.74" /> 
<circle cx="8262.26" cy="3023.23" r="78.74" /> 
</g>
<g style="fill:#840000; fill-opacity:1.0; 
stroke:#840000; stroke-width:39.3701; stroke-opacity:1; 
stroke-linecap:round; stroke-linejoin:round;">
<polyline style="fill-rule:evenodd;"
points="14263,3598
15024,3598
15024,4239
14263,4239
14263,3598
" /> 
</g>
<g style="fill:#840000; fill-opacity:1.0; 
stroke:#840000; stroke-width:680; stroke-opacity:1; 
stroke-linecap:round; stroke-linejoin:round;">
</g>
<g style="fill:#840000; fill-opacity:0.0; 
stroke:#840000; stroke-width:680; stroke-opacity:1; 
stroke-linecap:round; stroke-linejoin:round;">
<path d="M14704 4918
L14584 4918
" />
<path d="M14704 5918
L14584 5918
" />
<path d="M14704 6918
L14584 6918
" />
<path d="M14704 7918
L14584 7918
" />
<path d="M14704 8918
L14584 8918
" />
</g>
<g style="fill:#840000; fill-opacity:0.0; 
stroke:#840000; stroke-width:39.3701; stroke-opacity:1; 
stroke-linecap:round; stroke-linejoin:round;">
</g>
<g style="fill:#840000; fill-opacity:1.0; 
stroke:#840000; stroke-width:39.3701; stroke-opacity:1; 
stroke-linecap:round; stroke-linejoin:round;">
<polyline style="fill-rule:evenodd;"
points="15513,3598
16274,3598
16274,4239
15513,4239
15513,3598
" /> 
</g>
<g style="fill:#840000; fill-opacity:1.0; 
stroke:#840000; stroke-width:680; stroke-opacity:1; 
stroke-linecap:round; stroke-linejoin:round;">
</g>
<g style="fill:#840000; fill-opacity:0.0; 
stroke:#840000; stroke-width:680; stroke-opacity:1; 
stroke-linecap:round; stroke-linejoin:round;">
<path d="M15954 4918
L15834 4918
" />
<path d="M15954 5918
L15834 5918
" />
<path d="M15954 6918
L15834 6918
" />
<path d="M15954 7918
L15834 7918
" />
<path d="M15954 8918
L15834 8918
" />
</g>
<g style="fill:#840000; fill-opacity:0.0; 
stroke:#840000; stroke-width:39.3701; stroke-opacity:1; 
stroke-linecap:round; stroke-linejoin:round;">
</g>
<g style="fill:#840000; fill-opacity:1.0; 
stroke:#840000; stroke-width:39.3701; stroke-opacity:1; 
stroke-linecap:round; stroke-linejoin:round;">
<polyline style="fill-rule:evenodd;"
points="11451,4657
12002,4657
12002,5208
11451,5208
11451,4657
" /> 
<circle cx="11726.8" cy="5916.93" r="275.591" /> 
<circle cx="11726.8" cy="6704.33" r="275.591" /> 
<circle cx="11726.8" cy="7688.58" r="275.591" /> 
<circle cx="10659.9" cy="8897.64" r="629.921" /> 
<circle cx="10659.9" cy="3723.62" r="629.921" /> 
<polyline style="fill-rule:evenodd;"
points="18380,4676
18931,4676
18931,5227
18380,5227
18380,4676
" /> 
<circle cx="18656" cy="5936.61" r="275.591" /> 
<circle cx="18656" cy="6724.02" r="275.591" /> 
<circle cx="18656" cy="7708.27" r="275.591" /> 
<circle cx="19722.9" cy="8917.32" r="629.921" /> 
<circle cx="19722.9" cy="3743.31" r="629.921" /> 
<circle cx="21687.5" cy="7708.27" r="275.591" /> 
<circle cx="21687.5" cy="6724.02" r="275.591" /> 
<circle cx="21687.5" cy="5936.61" r="275.591" /> 
<polyline style="fill-rule:evenodd;"
points="21963,5227
21411,5227
21411,4676
21963,4676
21963,5227
" /> 
</g>
<g style="fill:#840000; fill-opacity:1.0; 
stroke:#840000; stroke-width:590.551; stroke-opacity:1; 
stroke-linecap:round; stroke-linejoin:round;">
</g>
<g style="fill:#840000; fill-opacity:0.0; 
stroke:#840000; stroke-width:590.551; stroke-opacity:1; 
stroke-linecap:round; stroke-linejoin:round;">
<path d="M22120 4027
L22907 4027
" />
<path d="M22120 8633
L22907 8633
" />
</g>
<g style="fill:#840000; fill-opacity:0.0; 
stroke:#840000; stroke-width:39.3701; stroke-opacity:1; 
stroke-linecap:round; stroke-linejoin:round;">
</g>
<g style="fill:#840000; fill-opacity:1.0; 
stroke:#840000; stroke-width:39.3701; stroke-opacity:1; 
stroke-linecap:round; stroke-linejoin:round;">
<circle cx="22514.2" cy="7235.83" r="196.85" /> 
<circle cx="22514.2" cy="5424.8" r="196.85" /> 
<circle cx="8734.7" cy="7727.95" r="275.591" /> 
<circle cx="8734.7" cy="6743.7" r="275.591" /> 
<circle cx="8734.7" cy="5956.3" r="275.591" /> 
<polyline style="fill-rule:evenodd;"
points="9010,5247
8459,5247
8459,4696
9010,4696
9010,5247
" /> 
</g>
<g style="fill:#840000; fill-opacity:1.0; 
stroke:#840000; stroke-width:590.551; stroke-opacity:1; 
stroke-linecap:round; stroke-linejoin:round;">
</g>
<g style="fill:#840000; fill-opacity:0.0; 
stroke:#840000; stroke-width:590.551; stroke-opacity:1; 
stroke-linecap:round; stroke-linejoin:round;">
<path d="M7514 4046
L8301 4046
" />
<path d="M7514 8653
L8301 8653
" />
</g>
<g style="fill:#840000; fill-opacity:0.0; 
stroke:#840000; stroke-width:39.3701; stroke-opacity:1; 
stroke-linecap:round; stroke-linejoin:round;">
</g>
<g style="fill:#840000; fill-opacity:1.0; 
stroke:#840000; stroke-width:39.3701; stroke-opacity:1; 
stroke-linecap:round; stroke-linejoin:round;">
<circle cx="7907.93" cy="7255.51" r="196.85" /> 
<circle cx="7907.93" cy="5444.49" r="196.85" /> 
<polyline style="fill-rule:evenodd;"
points="10132,5818
9187,5818
9187,5661
10132,5661
10132,5818
" /> 
<polyline style="fill-rule:evenodd;"
points="10132,6133
9187,6133
9187,5975
10132,5975
10132,6133
" /> 
<polyline style="fill-rule:evenodd;"
points="10132,6448
9187,6448
9187,6290
10132,6290
10132,6448
" /> 
<polyline style="fill-rule:evenodd;"
points="10132,6763
9187,6763
9187,6605
10132,6605
10132,6763
" /> 
<polyline style="fill-rule:evenodd;"
points="10132,7078
9187,7078
9187,6920
10132,6920
10132,7078
" /> 
<polyline style="fill-rule:evenodd;"
points="7966,8475
7022,8475
7022,7727
7966,7727
7966,8475
" /> 
<polyline style="fill-rule:evenodd;"
points="10132,8475
9187,8475
9187,7727
10132,7727
10132,8475
" /> 
<polyline style="fill-rule:evenodd;"
points="10132,5011
9187,5011
9187,4263
10132,4263
10132,5011
" /> 
<polyline style="fill-rule:evenodd;"
points="7966,5011
7022,5011
7022,4263
7966,4263
7966,5011
" /> 
</g>
<g style="fill:#840000; fill-opacity:1.0; 
stroke:#840000; stroke-width:393.701; stroke-opacity:1; 
stroke-linecap:round; stroke-linejoin:round;">
</g>
<g style="fill:#840000; fill-opacity:0.0; 
stroke:#840000; stroke-width:393.701; stroke-opacity:1; 
stroke-linecap:round; stroke-linejoin:round;">
<path d="M20279 2038
L20279 2432
" />
</g>
<g style="fill:#840000; fill-opacity:0.0; 
stroke:#840000; stroke-width:39.3701; stroke-opacity:1; 
stroke-linecap:round; stroke-linejoin:round;">
</g>
<g style="fill:#840000; fill-opacity:1.0; 
stroke:#840000; stroke-width:39.3701; stroke-opacity:1; 
stroke-linecap:round; stroke-linejoin:round;">
<polyline style="fill-rule:evenodd;"
points="21844,3426
21844,2934
21963,2934
21963,3426
21844,3426
" /> 
<polyline style="fill-rule:evenodd;"
points="21589,3426
21589,2934
21707,2934
21707,3426
21589,3426
" /> 
<polyline style="fill-rule:evenodd;"
points="21333,3426
21333,2934
21451,2934
21451,3426
21333,3426
" /> 
<polyline style="fill-rule:evenodd;"
points="21077,3426
21077,2934
21195,2934
21195,3426
21077,3426
" /> 
<polyline style="fill-rule:evenodd;"
points="20821,3426
20821,2934
20939,2934
20939,3426
20821,3426
" /> 
</g>
<g style="fill:#840000; fill-opacity:1.0; 
stroke:#840000; stroke-width:393.701; stroke-opacity:1; 
stroke-linecap:round; stroke-linejoin:round;">
</g>
<g style="fill:#840000; fill-opacity:0.0; 
stroke:#840000; stroke-width:393.701; stroke-opacity:1; 
stroke-linecap:round; stroke-linejoin:round;">
<path d="M22504 2038
L22504 2432
" />
</g>
<g style="fill:#840000; fill-opacity:0.0; 
stroke:#840000; stroke-width:39.3701; stroke-opacity:1; 
stroke-linecap:round; stroke-linejoin:round;">
</g>
<g style="fill:#840000; fill-opacity:1.0; 
stroke:#840000; stroke-width:39.3701; stroke-opacity:1; 
stroke-linecap:round; stroke-linejoin:round;">
<circle cx="20604.8" cy="3023.23" r="78.7402" /> 
<circle cx="22179.6" cy="3023.23" r="78.7402" /> 
<polyline style="fill-rule:evenodd;"
points="22396,3338
22396,2905
22986,2905
22986,3338
22396,3338
" /> 
<polyline style="fill-rule:evenodd;"
points="19797,3338
19797,2905
20388,2905
20388,3338
19797,3338
" /> 
</g>
<g style="fill:#840000; fill-opacity:1.0; 
stroke:#840000; stroke-width:393.701; stroke-opacity:1; 
stroke-linecap:round; stroke-linejoin:round;">
</g>
<g style="fill:#840000; fill-opacity:0.0; 
stroke:#840000; stroke-width:393.701; stroke-opacity:1; 
stroke-linecap:round; stroke-linejoin:round;">
<path d="M10161 2432
L10161 2038
" />
<path d="M7937 2432
L7937 2038
" />
</g>
<g style="fill:#840000; fill-opacity:0.0; 
stroke:#840000; stroke-width:39.3701; stroke-opacity:1; 
stroke-linecap:round; stroke-linejoin:round;">
</g>
<g style="fill:#840000; fill-opacity:1.0; 
stroke:#840000; stroke-width:39.3701; stroke-opacity:1; 
stroke-linecap:round; stroke-linejoin:round;">
<circle cx="9837.06" cy="3023.23" r="78.7402" /> 
<circle cx="8262.26" cy="3023.23" r="78.7402" /> 
</g>
<g style="fill:#008484; fill-opacity:0.0; 
stroke:#008484; stroke-width:118.11; stroke-opacity:1; 
stroke-linecap:round; stroke-linejoin:round;">
<path d="M16606 3595
L16803 4186
L17000 3595
" />
<path d="M17534 4129
L17506 4157
L17422 4186
L17366 4186
L17281 4157
L17225 4101
L17197 4045
L17169 3932
L17169 3848
L17197 3736
L17225 3679
L17281 3623
L17366 3595
L17422 3595
L17506 3623
L17534 3651
" />
<path d="M18125 4129
L18097 4157
L18012 4186
L17956 4186
L17872 4157
L17815 4101
L17787 4045
L17759 3932
L17759 3848
L17787 3736
L17815 3679
L17872 3623
L17956 3595
L18012 3595
L18097 3623
L18125 3651
" />
<path d="M16623 5186
L16623 4595
L16764 4595
L16848 4623
L16905 4679
L16933 4736
L16961 4848
L16961 4932
L16933 5045
L16905 5101
L16848 5157
L16764 5186
L16623 5186
" />
<path d="M17214 4961
L17664 4961
" />
<path d="M16623 6186
L16623 5595
L16764 5595
L16848 5623
L16905 5679
L16933 5736
L16961 5848
L16961 5932
L16933 6045
L16905 6101
L16848 6157
L16764 6186
L16623 6186
" />
<path d="M17214 5961
L17664 5961
" />
<path d="M17439 6186
L17439 5736
" />
<path d="M16598 7186
L16598 6595
" />
<path d="M16880 7186
L16880 6595
L17020 6595
L17105 6623
L17161 6679
L17189 6736
L17217 6848
L17217 6932
L17189 7045
L17161 7101
L17105 7157
L17020 7186
L16880 7186
" />
<path d="M16944 7623
L16887 7595
L16803 7595
L16719 7623
L16662 7679
L16634 7736
L16606 7848
L16606 7932
L16634 8045
L16662 8101
L16719 8157
L16803 8186
L16859 8186
L16944 8157
L16972 8129
L16972 7932
L16859 7932
" />
<path d="M17225 8186
L17225 7595
L17562 8186
L17562 7595
" />
<path d="M17844 8186
L17844 7595
L17984 7595
L18069 7623
L18125 7679
L18153 7736
L18181 7848
L18181 7932
L18153 8045
L18125 8101
L18069 8157
L17984 8186
L17844 8186
" />
<path d="M16631 9157
L16716 9186
L16856 9186
L16912 9157
L16941 9129
L16969 9073
L16969 9017
L16941 8961
L16912 8932
L16856 8904
L16744 8876
L16688 8848
L16659 8820
L16631 8764
L16631 8707
L16659 8651
L16688 8623
L16744 8595
L16884 8595
L16969 8623
" />
<path d="M17222 9186
L17222 8595
" />
<path d="M17222 8876
L17559 8876
" />
<path d="M17559 9186
L17559 8595
" />
<path d="M18122 9186
L17841 9186
L17841 8595
" />
<path d="M18319 9186
L18319 8595
L18459 8595
L18544 8623
L18600 8679
L18628 8736
L18656 8848
L18656 8932
L18628 9045
L18600 9101
L18544 9157
L18459 9186
L18319 9186
" />
</g>
<g style="fill:#008484; fill-opacity:0.0; 
stroke:#008484; stroke-width:59.0551; stroke-opacity:1; 
stroke-linecap:round; stroke-linejoin:round;">
<path d="M15144 4418
L15144 9418
" />
<path d="M15144 9418
L14144 9418
" />
<path d="M14144 9418
L14144 4418
" />
<path d="M15144 3418
L15144 4418
" />
<path d="M15144 4418
L14144 4418
" />
<path d="M15144 3418
L14144 3418
" />
<path d="M14144 3418
L14144 4418
" />
<path d="M16394 4418
L16394 9418
" />
<path d="M16394 9418
L15394 9418
" />
<path d="M15394 9418
L15394 4418
" />
<path d="M16394 3418
L16394 4418
" />
<path d="M16394 4418
L15394 4418
" />
<path d="M16394 3418
L15394 3418
" />
<path d="M15394 3418
L15394 4418
" />
<path d="M9915 8889
L6608 8889
" />
<path d="M12120 8889
L11411 8889
" />
<path d="M9915 3731
L6608 3731
" />
<path d="M12120 3731
L11411 3731
" />
<path d="M7238 7826
L8006 7826
" />
<path d="M7238 7157
L7238 7826
" />
<path d="M8026 7157
L7238 7157
" />
<path d="M8026 7157
L8774 7157
" />
<path d="M8006 7826
L8774 7826
" />
<path d="M8400 8062
L8045 7826
" />
<path d="M8774 8062
L8400 8062
" />
<path d="M8400 6920
L8045 7157
" />
<path d="M8774 6920
L8400 6920
" />
<path d="M8774 8062
L8774 6920
" />
<path d="M8045 7157
L8045 7826
" />
<path d="M7356 7275
L7356 7708
" />
<path d="M7356 7708
L8045 7826
" />
<path d="M7356 7275
L8045 7157
" />
<path d="M7356 4912
L8045 4794
" />
<path d="M7356 5346
L8045 5464
" />
<path d="M7356 4912
L7356 5346
" />
<path d="M8045 4794
L8045 5464
" />
<path d="M8774 5700
L8774 4558
" />
<path d="M8774 4558
L8400 4558
" />
<path d="M8400 4558
L8045 4794
" />
<path d="M8774 5700
L8400 5700
" />
<path d="M8400 5700
L8045 5464
" />
<path d="M8006 5464
L8774 5464
" />
<path d="M8026 4794
L8774 4794
" />
<path d="M8026 4794
L7238 4794
" />
<path d="M7238 4794
L7238 5464
" />
<path d="M7238 5464
L8006 5464
" />
<path d="M6608.72 8889.37 A275.591 275.591 0.0 0 0 6333.13 9164.96 " />
<path d="M6333.13 3456.3 A275.591 275.591 0.0 0 0 6608.72 3731.89 " />
<path d="M12120 3731
L12120 8889
" />
<path d="M6608 8889
L6608 3731
" />
<path d="M29506 8696
L23707 8692
" />
<path d="M23699 3968
L29506 3968
" />
<path d="M23707 3968
L23301 3968
" />
<path d="M23707 8692
L23301 8692
" />
<path d="M22167 4420
L22167 8239
" />
<path d="M27907 4440
L27120 4440
" />
<path d="M27120 4440
L27120 5306
" />
<path d="M27120 5306
L27907 5306
" />
<path d="M27907 5306
L27907 4440
" />
<path d="M27907 8220
L27120 8220
" />
<path d="M27120 8220
L27120 7353
" />
<path d="M27120 7353
L27907 7353
" />
<path d="M27907 7353
L27907 8220
" />
<path d="M23734 6330
L24994 6330
" />
<path d="M24994 6330
L24758 6094
" />
<path d="M24758 6094
L25545 6094
" />
<path d="M25545 6094
L25309 6330
" />
<path d="M25309 6330
L28380 6330
" />
<path d="M28380 6330
L28144 6094
" />
<path d="M28144 6094
L28931 6094
" />
<path d="M28931 6094
L28695 6330
" />
<path d="M28695 6330
L29482 6330
" />
<path d="M23707 8692
L23707 3968
" />
<path d="M29506 3968
L29506 8692
" />
<path d="M8085 4853
L9069 4853
" />
<path d="M6510 4853
L6903 4853
" />
<path d="M6903 7885
L6510 7885
" />
<path d="M9069 7885
L8085 7885
" />
<path d="M10152 7196
L10152 7609
" />
<path d="M10152 5129
L10152 5542
" />
<path d="M7514 6527
L7947 6448
" />
<path d="M7947 6448
L7947 6290
" />
<path d="M7947 6290
L7514 6192
" />
<path d="M7514 6192
L7514 6546
" />
<path d="M6785 6192
L8045 6192
" />
<path d="M8045 6192
L8045 6546
" />
<path d="M8045 6546
L6785 6546
" />
<path d="M6785 4853
L6785 7885
" />
<path d="M6510 7885
L6510 4853
" />
<path d="M19935 1251
L19935 2787
" />
<path d="M22848 2787
L22848 1251
" />
<path d="M22081 3220
L22278 3220
" />
<path d="M20506 3220
L20703 3220
" />
<path d="M20053 1015
L22730 1015
" />
<path d="M22730 1015
L22730 1251
" />
<path d="M20053 1015
L20053 1251
" />
<path d="M19935 1251
L19817 1015
" />
<path d="M22848 1251
L22966 1015
" />
<path d="M19935 1251
L22848 1251
" />
<path d="M15722 6709
L15328 6709
L15328 6559
L15347 6522
L15366 6503
L15403 6484
L15459 6484
L15497 6503
L15516 6522
L15534 6559
L15534 6709
" />
<path d="M15722 6109
L15722 6334
" />
<path d="M15722 6222
L15328 6222
L15384 6259
L15422 6297
L15441 6334
" />
<path d="M16972 6709
L16578 6709
L16578 6559
L16597 6522
L16616 6503
L16653 6484
L16709 6484
L16747 6503
L16766 6522
L16784 6559
L16784 6709
" />
<path d="M16616 6334
L16597 6315
L16578 6278
L16578 6184
L16597 6147
L16616 6128
L16653 6109
L16691 6109
L16747 6128
L16972 6353
L16972 6109
" />
<path d="M5920 6441
L6201 6441
L6258 6460
L6295 6498
L6314 6554
L6314 6591
" />
<path d="M5958 6273
L5939 6254
L5920 6216
L5920 6123
L5939 6085
L5958 6066
L5995 6048
L6033 6048
L6089 6066
L6314 6291
L6314 6048
" />
<path d="M12495 8035
L12814 8035
L12851 8016
L12870 7997
L12889 7960
L12889 7885
L12870 7847
L12851 7829
L12814 7810
L12495 7810
" />
<path d="M12870 7641
L12889 7585
L12889 7491
L12870 7454
L12851 7435
L12814 7416
L12776 7416
L12739 7435
L12720 7454
L12701 7491
L12682 7566
L12664 7604
L12645 7622
L12607 7641
L12570 7641
L12532 7622
L12514 7604
L12495 7566
L12495 7472
L12514 7416
" />
<path d="M12682 7116
L12701 7060
L12720 7041
L12757 7023
L12814 7023
L12851 7041
L12870 7060
L12889 7098
L12889 7248
L12495 7248
L12495 7116
L12514 7079
L12532 7060
L12570 7041
L12607 7041
L12645 7060
L12664 7079
L12682 7116
L12682 7248
" />
<path d="M12926 6948
L12926 6648
" />
<path d="M12682 6423
L12682 6554
" />
<path d="M12889 6554
L12495 6554
L12495 6366
" />
<path d="M12682 6216
L12682 6085
" />
<path d="M12889 6029
L12889 6216
L12495 6216
L12495 6029
" />
<path d="M12889 5860
L12495 5860
L12776 5729
L12495 5598
L12889 5598
" />
<path d="M12776 5429
L12776 5242
" />
<path d="M12889 5466
L12495 5335
L12889 5204
" />
<path d="M12889 4885
L12889 5073
L12495 5073
" />
<path d="M12682 4754
L12682 4623
" />
<path d="M12889 4567
L12889 4754
L12495 4754
L12495 4567
" />
<path d="M29739 6461
L30020 6461
L30077 6480
L30114 6517
L30133 6574
L30133 6611
" />
<path d="M29739 6086
L29739 6274
L29927 6292
L29908 6274
L29889 6236
L29889 6142
L29908 6105
L29927 6086
L29964 6067
L30058 6067
L30095 6086
L30114 6105
L30133 6142
L30133 6236
L30114 6274
L30095 6292
" />
<path d="M20487 7708
L20806 7708
L20843 7689
L20862 7670
L20881 7633
L20881 7558
L20862 7520
L20843 7502
L20806 7483
L20487 7483
" />
<path d="M20862 7314
L20881 7258
L20881 7164
L20862 7127
L20843 7108
L20806 7089
L20768 7089
L20731 7108
L20712 7127
L20693 7164
L20675 7239
L20656 7277
L20637 7295
L20600 7314
L20562 7314
L20525 7295
L20506 7277
L20487 7239
L20487 7145
L20506 7089
" />
<path d="M20675 6789
L20693 6733
L20712 6714
L20750 6695
L20806 6695
L20843 6714
L20862 6733
L20881 6770
L20881 6920
L20487 6920
L20487 6789
L20506 6752
L20525 6733
L20562 6714
L20600 6714
L20637 6733
L20656 6752
L20675 6789
L20675 6920
" />
<path d="M20918 6620
L20918 6320
" />
<path d="M20881 6227
L20487 6227
L20768 6095
L20487 5964
L20881 5964
" />
<path d="M20768 5796
L20768 5608
" />
<path d="M20881 5833
L20487 5702
L20881 5571
" />
<path d="M20881 5252
L20881 5439
L20487 5439
" />
<path d="M20675 5121
L20675 4989
" />
<path d="M20881 4933
L20881 5121
L20487 5121
L20487 4933
" />
<path d="M5861 6500
L6142 6500
L6199 6519
L6236 6557
L6255 6613
L6255 6650
" />
<path d="M5992 6144
L6255 6144
" />
<path d="M5842 6238
L6124 6332
L6124 6088
" />
<path d="M10448 9359
L10766 9359
L10804 9341
L10823 9322
L10841 9284
L10841 9209
L10823 9172
L10804 9153
L10766 9134
L10448 9134
" />
<path d="M10823 8966
L10841 8909
L10841 8816
L10823 8778
L10804 8760
L10766 8741
L10729 8741
L10691 8760
L10673 8778
L10654 8816
L10635 8891
L10616 8928
L10598 8947
L10560 8966
L10523 8966
L10485 8947
L10466 8928
L10448 8891
L10448 8797
L10466 8741
" />
<path d="M10635 8441
L10654 8385
L10673 8366
L10710 8347
L10766 8347
L10804 8366
L10823 8385
L10841 8422
L10841 8572
L10448 8572
L10448 8441
L10466 8403
L10485 8385
L10523 8366
L10560 8366
L10598 8385
L10616 8403
L10635 8441
L10635 8572
" />
<path d="M10879 8272
L10879 7972
" />
<path d="M10635 7747
L10635 7878
" />
<path d="M10841 7878
L10448 7878
L10448 7691
" />
<path d="M10635 7541
L10635 7410
" />
<path d="M10841 7353
L10841 7541
L10448 7541
L10448 7353
" />
<path d="M10841 7185
L10448 7185
L10729 7053
L10448 6922
L10841 6922
" />
<path d="M10729 6754
L10729 6566
" />
<path d="M10841 6791
L10448 6660
L10841 6529
" />
<path d="M10841 6210
L10841 6397
L10448 6397
" />
<path d="M10635 6079
L10635 5947
" />
<path d="M10841 5891
L10841 6079
L10448 6079
L10448 5891
" />
<path d="M10879 5816
L10879 5516
" />
<path d="M10448 5460
L10841 5366
L10560 5291
L10841 5216
L10448 5122
" />
<path d="M10841 4972
L10448 4972
" />
<path d="M10448 4841
L10448 4616
" />
<path d="M10841 4729
L10448 4729
" />
<path d="M10841 4485
L10448 4485
" />
<path d="M10635 4485
L10635 4260
" />
<path d="M10841 4260
L10448 4260
" />
<path d="M10879 4166
L10879 3866
" />
<path d="M10841 3773
L10448 3773
" />
<path d="M10841 3585
L10448 3585
L10448 3491
L10466 3435
L10504 3398
L10541 3379
L10616 3360
L10673 3360
L10748 3379
L10785 3398
L10823 3435
L10841 3491
L10841 3585
" />
<path d="M21260 248
L21260 529
L21242 586
L21204 623
L21148 642
L21110 642
" />
<path d="M21504 417
L21467 398
L21448 379
L21429 342
L21429 323
L21448 286
L21467 267
L21504 248
L21579 248
L21617 267
L21635 286
L21654 323
L21654 342
L21635 379
L21617 398
L21579 417
L21504 417
L21467 436
L21448 454
L21429 492
L21429 567
L21448 604
L21467 623
L21504 642
L21579 642
L21617 623
L21635 604
L21654 567
L21654 492
L21635 454
L21617 436
L21579 417
" />
<path d="M18401 3772
L18401 4090
L18420 4128
L18439 4147
L18476 4165
L18551 4165
L18589 4147
L18608 4128
L18626 4090
L18626 3772
" />
<path d="M18795 4147
L18851 4165
L18945 4165
L18983 4147
L19001 4128
L19020 4090
L19020 4053
L19001 4015
L18983 3997
L18945 3978
L18870 3959
L18833 3940
L18814 3922
L18795 3884
L18795 3847
L18814 3809
L18833 3790
L18870 3772
L18964 3772
L19020 3790
" />
<path d="M19320 3959
L19376 3978
L19395 3997
L19414 4034
L19414 4090
L19395 4128
L19376 4147
L19339 4165
L19189 4165
L19189 3772
L19320 3772
L19358 3790
L19376 3809
L19395 3847
L19395 3884
L19376 3922
L19358 3940
L19320 3959
L19189 3959
" />
<path d="M19489 4203
L19789 4203
" />
<path d="M20014 3959
L19882 3959
" />
<path d="M19882 4165
L19882 3772
L20070 3772
" />
<path d="M20220 3959
L20351 3959
" />
<path d="M20407 4165
L20220 4165
L20220 3772
L20407 3772
" />
<path d="M20576 4165
L20576 3772
L20707 4053
L20839 3772
L20839 4165
" />
<path d="M21007 4053
L21195 4053
" />
<path d="M20970 4165
L21101 3772
L21232 4165
" />
<path d="M21551 4165
L21364 4165
L21364 3772
" />
<path d="M21682 3959
L21814 3959
" />
<path d="M21870 4165
L21682 4165
L21682 3772
L21870 3772
" />
<path d="M21945 4203
L22245 4203
" />
<path d="M22301 3772
L22395 4165
L22470 3884
L22545 4165
L22638 3772
" />
<path d="M22788 4165
L22788 3772
" />
<path d="M22920 3772
L23145 3772
" />
<path d="M23032 4165
L23032 3772
" />
<path d="M23276 4165
L23276 3772
" />
<path d="M23276 3959
L23501 3959
" />
<path d="M23501 4165
L23501 3772
" />
<path d="M23595 4203
L23894 4203
" />
<path d="M23988 4165
L23988 3772
" />
<path d="M24176 4165
L24176 3772
L24269 3772
L24326 3790
L24363 3828
L24382 3865
L24401 3940
L24401 3997
L24382 4072
L24363 4109
L24326 4147
L24269 4165
L24176 4165
" />
</g>
<g style="fill:#C2C200; fill-opacity:0.0; 
stroke:#C2C200; stroke-width:10; stroke-opacity:1; 
stroke-linecap:round; stroke-linejoin:round;">
<path d="M7159 1290
L23301 1290
" />
<path d="M6766 9952
L6766 1684
" />
<path d="M7159 10346
L23498 10346
" />
<path d="M23695 1684
L23695 9952
" />
<path d="M23301.6 10346.1 A393.701 393.701 0.0 0 0 23695.3 9952.36 " />
<path d="M6766.2 9952.36 A393.701 393.701 0.0 0 0 7159.9 10346.1 " />
<path d="M7159.9 1290.94 A393.701 393.701 0.0 0 0 6766.2 1684.65 " />
<path d="M23695.3 1684.65 A393.701 393.701 0.0 0 0 23301.6 1290.94 " />
</g> 
</svg>
