G04 #@! TF.FileFunction,Soldermask,Top*
%FSLAX46Y46*%
G04 Gerber Fmt 4.6, Leading zero omitted, Abs format (unit mm)*
G04 Created by KiCad (PCBNEW (2015-01-08 BZR 5360)-product) date 2015-02-07T22:59:37 CET*
%MOMM*%
G01*
G04 APERTURE LIST*
%ADD10C,0.100000*%
%ADD11R,2.032000X1.727200*%
%ADD12O,2.032000X1.727200*%
%ADD13R,1.500000X1.500000*%
%ADD14C,1.500000*%
%ADD15C,3.300000*%
%ADD16O,3.500000X1.500000*%
%ADD17C,1.100000*%
%ADD18R,2.500000X0.500000*%
%ADD19R,2.500000X2.000000*%
%ADD20O,1.000000X2.000000*%
%ADD21R,0.400000X1.350000*%
%ADD22C,0.500000*%
%ADD23R,1.600000X1.200000*%
G04 APERTURE END LIST*
D10*
D11*
X80010000Y-66675000D03*
D12*
X80010000Y-69215000D03*
X80010000Y-71755000D03*
X80010000Y-74295000D03*
X80010000Y-76835000D03*
X80010000Y-79375000D03*
D11*
X83185000Y-66675000D03*
D12*
X83185000Y-69215000D03*
X83185000Y-71755000D03*
X83185000Y-74295000D03*
X83185000Y-76835000D03*
X83185000Y-79375000D03*
D13*
X72600000Y-69250000D03*
D14*
X72600000Y-71750000D03*
X72600000Y-73750000D03*
X72600000Y-76250000D03*
D15*
X69890000Y-79321000D03*
X69890000Y-66179000D03*
D13*
X90200000Y-69300000D03*
D14*
X90200000Y-71800000D03*
X90200000Y-73800000D03*
X90200000Y-76300000D03*
D15*
X92910000Y-79371000D03*
X92910000Y-66229000D03*
D14*
X97900000Y-76300000D03*
X97900000Y-73800000D03*
X97900000Y-71800000D03*
D13*
X97900000Y-69300000D03*
D16*
X100000000Y-66950000D03*
X100000000Y-78650000D03*
D17*
X100000000Y-75100000D03*
X100000000Y-70500000D03*
D14*
X65000000Y-76350000D03*
X65000000Y-73850000D03*
X65000000Y-71850000D03*
D13*
X65000000Y-69350000D03*
D16*
X62900000Y-67000000D03*
X62900000Y-78700000D03*
D17*
X62900000Y-75150000D03*
X62900000Y-70550000D03*
D18*
X67350000Y-71300000D03*
X67350000Y-72100000D03*
X67350000Y-72900000D03*
X67350000Y-73700000D03*
X67350000Y-74500000D03*
D19*
X61850000Y-77300000D03*
X67350000Y-77300000D03*
X67350000Y-68500000D03*
X61850000Y-68500000D03*
D20*
X94325000Y-62400000D03*
D21*
X98450000Y-64800000D03*
X97800000Y-64800000D03*
X97150000Y-64800000D03*
X96500000Y-64800000D03*
X95850000Y-64800000D03*
D20*
X99975000Y-62400000D03*
D22*
X95150000Y-64400000D03*
X99150000Y-64400000D03*
D23*
X100450000Y-64650000D03*
X93850000Y-64650000D03*
D20*
X68625000Y-62400000D03*
X62975000Y-62400000D03*
D22*
X67800000Y-64400000D03*
X63800000Y-64400000D03*
M02*
