G04 #@! TF.FileFunction,Legend,Top*
%FSLAX46Y46*%
G04 Gerber Fmt 4.6, Leading zero omitted, Abs format (unit mm)*
G04 Created by KiCad (PCBNEW (2015-01-08 BZR 5360)-product) date 2015-02-07T22:59:37 CET*
%MOMM*%
G01*
G04 APERTURE LIST*
%ADD10C,0.100000*%
%ADD11C,0.300000*%
%ADD12C,0.150000*%
G04 APERTURE END LIST*
D10*
D11*
X84995000Y-65853571D02*
X85495000Y-67353571D01*
X85995000Y-65853571D01*
X87352143Y-67210714D02*
X87280714Y-67282143D01*
X87066428Y-67353571D01*
X86923571Y-67353571D01*
X86709286Y-67282143D01*
X86566428Y-67139286D01*
X86495000Y-66996429D01*
X86423571Y-66710714D01*
X86423571Y-66496429D01*
X86495000Y-66210714D01*
X86566428Y-66067857D01*
X86709286Y-65925000D01*
X86923571Y-65853571D01*
X87066428Y-65853571D01*
X87280714Y-65925000D01*
X87352143Y-65996429D01*
X88852143Y-67210714D02*
X88780714Y-67282143D01*
X88566428Y-67353571D01*
X88423571Y-67353571D01*
X88209286Y-67282143D01*
X88066428Y-67139286D01*
X87995000Y-66996429D01*
X87923571Y-66710714D01*
X87923571Y-66496429D01*
X87995000Y-66210714D01*
X88066428Y-66067857D01*
X88209286Y-65925000D01*
X88423571Y-65853571D01*
X88566428Y-65853571D01*
X88780714Y-65925000D01*
X88852143Y-65996429D01*
X85038572Y-69893571D02*
X85038572Y-68393571D01*
X85395715Y-68393571D01*
X85610000Y-68465000D01*
X85752858Y-68607857D01*
X85824286Y-68750714D01*
X85895715Y-69036429D01*
X85895715Y-69250714D01*
X85824286Y-69536429D01*
X85752858Y-69679286D01*
X85610000Y-69822143D01*
X85395715Y-69893571D01*
X85038572Y-69893571D01*
X86538572Y-69322143D02*
X87681429Y-69322143D01*
X85038572Y-72433571D02*
X85038572Y-70933571D01*
X85395715Y-70933571D01*
X85610000Y-71005000D01*
X85752858Y-71147857D01*
X85824286Y-71290714D01*
X85895715Y-71576429D01*
X85895715Y-71790714D01*
X85824286Y-72076429D01*
X85752858Y-72219286D01*
X85610000Y-72362143D01*
X85395715Y-72433571D01*
X85038572Y-72433571D01*
X86538572Y-71862143D02*
X87681429Y-71862143D01*
X87110000Y-72433571D02*
X87110000Y-71290714D01*
X84975000Y-74973571D02*
X84975000Y-73473571D01*
X85689286Y-74973571D02*
X85689286Y-73473571D01*
X86046429Y-73473571D01*
X86260714Y-73545000D01*
X86403572Y-73687857D01*
X86475000Y-73830714D01*
X86546429Y-74116429D01*
X86546429Y-74330714D01*
X86475000Y-74616429D01*
X86403572Y-74759286D01*
X86260714Y-74902143D01*
X86046429Y-74973571D01*
X85689286Y-74973571D01*
X85852143Y-76085000D02*
X85709286Y-76013571D01*
X85495000Y-76013571D01*
X85280715Y-76085000D01*
X85137857Y-76227857D01*
X85066429Y-76370714D01*
X84995000Y-76656429D01*
X84995000Y-76870714D01*
X85066429Y-77156429D01*
X85137857Y-77299286D01*
X85280715Y-77442143D01*
X85495000Y-77513571D01*
X85637857Y-77513571D01*
X85852143Y-77442143D01*
X85923572Y-77370714D01*
X85923572Y-76870714D01*
X85637857Y-76870714D01*
X86566429Y-77513571D02*
X86566429Y-76013571D01*
X87423572Y-77513571D01*
X87423572Y-76013571D01*
X88137858Y-77513571D02*
X88137858Y-76013571D01*
X88495001Y-76013571D01*
X88709286Y-76085000D01*
X88852144Y-76227857D01*
X88923572Y-76370714D01*
X88995001Y-76656429D01*
X88995001Y-76870714D01*
X88923572Y-77156429D01*
X88852144Y-77299286D01*
X88709286Y-77442143D01*
X88495001Y-77513571D01*
X88137858Y-77513571D01*
X85058571Y-79982143D02*
X85272857Y-80053571D01*
X85630000Y-80053571D01*
X85772857Y-79982143D01*
X85844286Y-79910714D01*
X85915714Y-79767857D01*
X85915714Y-79625000D01*
X85844286Y-79482143D01*
X85772857Y-79410714D01*
X85630000Y-79339286D01*
X85344286Y-79267857D01*
X85201428Y-79196429D01*
X85130000Y-79125000D01*
X85058571Y-78982143D01*
X85058571Y-78839286D01*
X85130000Y-78696429D01*
X85201428Y-78625000D01*
X85344286Y-78553571D01*
X85701428Y-78553571D01*
X85915714Y-78625000D01*
X86558571Y-80053571D02*
X86558571Y-78553571D01*
X86558571Y-79267857D02*
X87415714Y-79267857D01*
X87415714Y-80053571D02*
X87415714Y-78553571D01*
X88844286Y-80053571D02*
X88130000Y-80053571D01*
X88130000Y-78553571D01*
X89344286Y-80053571D02*
X89344286Y-78553571D01*
X89701429Y-78553571D01*
X89915714Y-78625000D01*
X90058572Y-78767857D01*
X90130000Y-78910714D01*
X90201429Y-79196429D01*
X90201429Y-79410714D01*
X90130000Y-79696429D01*
X90058572Y-79839286D01*
X89915714Y-79982143D01*
X89701429Y-80053571D01*
X89344286Y-80053571D01*
D12*
X81280000Y-67945000D02*
X81280000Y-80645000D01*
X81280000Y-80645000D02*
X78740000Y-80645000D01*
X78740000Y-80645000D02*
X78740000Y-67945000D01*
X81280000Y-65405000D02*
X81280000Y-67945000D01*
X81280000Y-67945000D02*
X78740000Y-67945000D01*
X81280000Y-65405000D02*
X78740000Y-65405000D01*
X78740000Y-65405000D02*
X78740000Y-67945000D01*
X84455000Y-67945000D02*
X84455000Y-80645000D01*
X84455000Y-80645000D02*
X81915000Y-80645000D01*
X81915000Y-80645000D02*
X81915000Y-67945000D01*
X84455000Y-65405000D02*
X84455000Y-67945000D01*
X84455000Y-67945000D02*
X81915000Y-67945000D01*
X84455000Y-65405000D02*
X81915000Y-65405000D01*
X81915000Y-65405000D02*
X81915000Y-67945000D01*
X68000000Y-79300000D02*
X59600000Y-79300000D01*
X73600000Y-79300000D02*
X71800000Y-79300000D01*
X68000000Y-66200000D02*
X59600000Y-66200000D01*
X73600000Y-66200000D02*
X71800000Y-66200000D01*
X61200000Y-76600000D02*
X63150000Y-76600000D01*
X61200000Y-74900000D02*
X61200000Y-76600000D01*
X63200000Y-74900000D02*
X61200000Y-74900000D01*
X63200000Y-74900000D02*
X65100000Y-74900000D01*
X63150000Y-76600000D02*
X65100000Y-76600000D01*
X64150000Y-77200000D02*
X63250000Y-76600000D01*
X65100000Y-77200000D02*
X64150000Y-77200000D01*
X64150000Y-74300000D02*
X63250000Y-74900000D01*
X65100000Y-74300000D02*
X64150000Y-74300000D01*
X65100000Y-77200000D02*
X65100000Y-74300000D01*
X63250000Y-74900000D02*
X63250000Y-76600000D01*
X61500000Y-75200000D02*
X61500000Y-76300000D01*
X61500000Y-76300000D02*
X63250000Y-76600000D01*
X61500000Y-75200000D02*
X63250000Y-74900000D01*
X61500000Y-69200000D02*
X63250000Y-68900000D01*
X61500000Y-70300000D02*
X63250000Y-70600000D01*
X61500000Y-69200000D02*
X61500000Y-70300000D01*
X63250000Y-68900000D02*
X63250000Y-70600000D01*
X65100000Y-71200000D02*
X65100000Y-68300000D01*
X65100000Y-68300000D02*
X64150000Y-68300000D01*
X64150000Y-68300000D02*
X63250000Y-68900000D01*
X65100000Y-71200000D02*
X64150000Y-71200000D01*
X64150000Y-71200000D02*
X63250000Y-70600000D01*
X63150000Y-70600000D02*
X65100000Y-70600000D01*
X63200000Y-68900000D02*
X65100000Y-68900000D01*
X63200000Y-68900000D02*
X61200000Y-68900000D01*
X61200000Y-68900000D02*
X61200000Y-70600000D01*
X61200000Y-70600000D02*
X63150000Y-70600000D01*
X59600000Y-79300000D02*
G75*
G03X58900000Y-80000000I0J-700000D01*
G01*
X58900000Y-65500000D02*
G75*
G03X59600000Y-66200000I700000J0D01*
G01*
X73600000Y-66200000D02*
X73600000Y-79300000D01*
X59600000Y-79300000D02*
X59600000Y-66200000D01*
X117760000Y-78810000D02*
X103030000Y-78800000D01*
X103010000Y-66800000D02*
X117760000Y-66800000D01*
X103030000Y-66800000D02*
X102000000Y-66800000D01*
X103030000Y-78800000D02*
X102000000Y-78800000D01*
X99120000Y-67950000D02*
X99120000Y-77650000D01*
X113700000Y-68000000D02*
X111700000Y-68000000D01*
X111700000Y-68000000D02*
X111700000Y-70200000D01*
X111700000Y-70200000D02*
X113700000Y-70200000D01*
X113700000Y-70200000D02*
X113700000Y-68000000D01*
X113700000Y-77600000D02*
X111700000Y-77600000D01*
X111700000Y-77600000D02*
X111700000Y-75400000D01*
X111700000Y-75400000D02*
X113700000Y-75400000D01*
X113700000Y-75400000D02*
X113700000Y-77600000D01*
X103100000Y-72800000D02*
X106300000Y-72800000D01*
X106300000Y-72800000D02*
X105700000Y-72200000D01*
X105700000Y-72200000D02*
X107700000Y-72200000D01*
X107700000Y-72200000D02*
X107100000Y-72800000D01*
X107100000Y-72800000D02*
X114900000Y-72800000D01*
X114900000Y-72800000D02*
X114300000Y-72200000D01*
X114300000Y-72200000D02*
X116300000Y-72200000D01*
X116300000Y-72200000D02*
X115700000Y-72800000D01*
X115700000Y-72800000D02*
X117700000Y-72800000D01*
X103030000Y-78800000D02*
X103030000Y-66800000D01*
X117760000Y-66800000D02*
X117760000Y-78800000D01*
X63350000Y-69050000D02*
X65850000Y-69050000D01*
X59350000Y-69050000D02*
X60350000Y-69050000D01*
X60350000Y-76750000D02*
X59350000Y-76750000D01*
X65850000Y-76750000D02*
X63350000Y-76750000D01*
X68600000Y-75000000D02*
X68600000Y-76050000D01*
X68600000Y-69750000D02*
X68600000Y-70800000D01*
X61900000Y-73300000D02*
X63000000Y-73100000D01*
X63000000Y-73100000D02*
X63000000Y-72700000D01*
X63000000Y-72700000D02*
X61900000Y-72450000D01*
X61900000Y-72450000D02*
X61900000Y-73350000D01*
X60050000Y-72450000D02*
X63250000Y-72450000D01*
X63250000Y-72450000D02*
X63250000Y-73350000D01*
X63250000Y-73350000D02*
X60050000Y-73350000D01*
X60050000Y-69050000D02*
X60050000Y-76750000D01*
X59350000Y-76750000D02*
X59350000Y-69050000D01*
X93450000Y-59900000D02*
X93450000Y-63800000D01*
X100850000Y-63800000D02*
X100850000Y-59900000D01*
X98900000Y-64900000D02*
X99400000Y-64900000D01*
X94900000Y-64900000D02*
X95400000Y-64900000D01*
X93750000Y-59300000D02*
X100550000Y-59300000D01*
X100550000Y-59300000D02*
X100550000Y-59900000D01*
X93750000Y-59300000D02*
X93750000Y-59900000D01*
X93450000Y-59900000D02*
X93150000Y-59300000D01*
X100850000Y-59900000D02*
X101150000Y-59300000D01*
X93450000Y-59900000D02*
X100850000Y-59900000D01*
X82748381Y-73763095D02*
X81748381Y-73763095D01*
X81748381Y-73382142D01*
X81796000Y-73286904D01*
X81843619Y-73239285D01*
X81938857Y-73191666D01*
X82081714Y-73191666D01*
X82176952Y-73239285D01*
X82224571Y-73286904D01*
X82272190Y-73382142D01*
X82272190Y-73763095D01*
X82748381Y-72239285D02*
X82748381Y-72810714D01*
X82748381Y-72525000D02*
X81748381Y-72525000D01*
X81891238Y-72620238D01*
X81986476Y-72715476D01*
X82034095Y-72810714D01*
X85923381Y-73763095D02*
X84923381Y-73763095D01*
X84923381Y-73382142D01*
X84971000Y-73286904D01*
X85018619Y-73239285D01*
X85113857Y-73191666D01*
X85256714Y-73191666D01*
X85351952Y-73239285D01*
X85399571Y-73286904D01*
X85447190Y-73382142D01*
X85447190Y-73763095D01*
X85018619Y-72810714D02*
X84971000Y-72763095D01*
X84923381Y-72667857D01*
X84923381Y-72429761D01*
X84971000Y-72334523D01*
X85018619Y-72286904D01*
X85113857Y-72239285D01*
X85209095Y-72239285D01*
X85351952Y-72286904D01*
X85923381Y-72858333D01*
X85923381Y-72239285D01*
X57852381Y-73083333D02*
X58566667Y-73083333D01*
X58709524Y-73130953D01*
X58804762Y-73226191D01*
X58852381Y-73369048D01*
X58852381Y-73464286D01*
X57947619Y-72654762D02*
X57900000Y-72607143D01*
X57852381Y-72511905D01*
X57852381Y-72273809D01*
X57900000Y-72178571D01*
X57947619Y-72130952D01*
X58042857Y-72083333D01*
X58138095Y-72083333D01*
X58280952Y-72130952D01*
X58852381Y-72702381D01*
X58852381Y-72083333D01*
X74552381Y-77130953D02*
X75361905Y-77130953D01*
X75457143Y-77083334D01*
X75504762Y-77035715D01*
X75552381Y-76940477D01*
X75552381Y-76750000D01*
X75504762Y-76654762D01*
X75457143Y-76607143D01*
X75361905Y-76559524D01*
X74552381Y-76559524D01*
X75504762Y-76130953D02*
X75552381Y-75988096D01*
X75552381Y-75750000D01*
X75504762Y-75654762D01*
X75457143Y-75607143D01*
X75361905Y-75559524D01*
X75266667Y-75559524D01*
X75171429Y-75607143D01*
X75123810Y-75654762D01*
X75076190Y-75750000D01*
X75028571Y-75940477D01*
X74980952Y-76035715D01*
X74933333Y-76083334D01*
X74838095Y-76130953D01*
X74742857Y-76130953D01*
X74647619Y-76083334D01*
X74600000Y-76035715D01*
X74552381Y-75940477D01*
X74552381Y-75702381D01*
X74600000Y-75559524D01*
X75028571Y-74797619D02*
X75076190Y-74654762D01*
X75123810Y-74607143D01*
X75219048Y-74559524D01*
X75361905Y-74559524D01*
X75457143Y-74607143D01*
X75504762Y-74654762D01*
X75552381Y-74750000D01*
X75552381Y-75130953D01*
X74552381Y-75130953D01*
X74552381Y-74797619D01*
X74600000Y-74702381D01*
X74647619Y-74654762D01*
X74742857Y-74607143D01*
X74838095Y-74607143D01*
X74933333Y-74654762D01*
X74980952Y-74702381D01*
X75028571Y-74797619D01*
X75028571Y-75130953D01*
X75647619Y-74369048D02*
X75647619Y-73607143D01*
X75028571Y-73035714D02*
X75028571Y-73369048D01*
X75552381Y-73369048D02*
X74552381Y-73369048D01*
X74552381Y-72892857D01*
X75028571Y-72511905D02*
X75028571Y-72178571D01*
X75552381Y-72035714D02*
X75552381Y-72511905D01*
X74552381Y-72511905D01*
X74552381Y-72035714D01*
X75552381Y-71607143D02*
X74552381Y-71607143D01*
X75266667Y-71273809D01*
X74552381Y-70940476D01*
X75552381Y-70940476D01*
X75266667Y-70511905D02*
X75266667Y-70035714D01*
X75552381Y-70607143D02*
X74552381Y-70273810D01*
X75552381Y-69940476D01*
X75552381Y-69130952D02*
X75552381Y-69607143D01*
X74552381Y-69607143D01*
X75028571Y-68797619D02*
X75028571Y-68464285D01*
X75552381Y-68321428D02*
X75552381Y-68797619D01*
X74552381Y-68797619D01*
X74552381Y-68321428D01*
X118352381Y-73133333D02*
X119066667Y-73133333D01*
X119209524Y-73180953D01*
X119304762Y-73276191D01*
X119352381Y-73419048D01*
X119352381Y-73514286D01*
X118352381Y-72180952D02*
X118352381Y-72657143D01*
X118828571Y-72704762D01*
X118780952Y-72657143D01*
X118733333Y-72561905D01*
X118733333Y-72323809D01*
X118780952Y-72228571D01*
X118828571Y-72180952D01*
X118923810Y-72133333D01*
X119161905Y-72133333D01*
X119257143Y-72180952D01*
X119304762Y-72228571D01*
X119352381Y-72323809D01*
X119352381Y-72561905D01*
X119304762Y-72657143D01*
X119257143Y-72704762D01*
X94852381Y-76300000D02*
X95661905Y-76300000D01*
X95757143Y-76252381D01*
X95804762Y-76204762D01*
X95852381Y-76109524D01*
X95852381Y-75919047D01*
X95804762Y-75823809D01*
X95757143Y-75776190D01*
X95661905Y-75728571D01*
X94852381Y-75728571D01*
X95804762Y-75300000D02*
X95852381Y-75157143D01*
X95852381Y-74919047D01*
X95804762Y-74823809D01*
X95757143Y-74776190D01*
X95661905Y-74728571D01*
X95566667Y-74728571D01*
X95471429Y-74776190D01*
X95423810Y-74823809D01*
X95376190Y-74919047D01*
X95328571Y-75109524D01*
X95280952Y-75204762D01*
X95233333Y-75252381D01*
X95138095Y-75300000D01*
X95042857Y-75300000D01*
X94947619Y-75252381D01*
X94900000Y-75204762D01*
X94852381Y-75109524D01*
X94852381Y-74871428D01*
X94900000Y-74728571D01*
X95328571Y-73966666D02*
X95376190Y-73823809D01*
X95423810Y-73776190D01*
X95519048Y-73728571D01*
X95661905Y-73728571D01*
X95757143Y-73776190D01*
X95804762Y-73823809D01*
X95852381Y-73919047D01*
X95852381Y-74300000D01*
X94852381Y-74300000D01*
X94852381Y-73966666D01*
X94900000Y-73871428D01*
X94947619Y-73823809D01*
X95042857Y-73776190D01*
X95138095Y-73776190D01*
X95233333Y-73823809D01*
X95280952Y-73871428D01*
X95328571Y-73966666D01*
X95328571Y-74300000D01*
X95947619Y-73538095D02*
X95947619Y-72776190D01*
X95852381Y-72538095D02*
X94852381Y-72538095D01*
X95566667Y-72204761D01*
X94852381Y-71871428D01*
X95852381Y-71871428D01*
X95566667Y-71442857D02*
X95566667Y-70966666D01*
X95852381Y-71538095D02*
X94852381Y-71204762D01*
X95852381Y-70871428D01*
X95852381Y-70061904D02*
X95852381Y-70538095D01*
X94852381Y-70538095D01*
X95328571Y-69728571D02*
X95328571Y-69395237D01*
X95852381Y-69252380D02*
X95852381Y-69728571D01*
X94852381Y-69728571D01*
X94852381Y-69252380D01*
X57702381Y-73233333D02*
X58416667Y-73233333D01*
X58559524Y-73280953D01*
X58654762Y-73376191D01*
X58702381Y-73519048D01*
X58702381Y-73614286D01*
X58035714Y-72328571D02*
X58702381Y-72328571D01*
X57654762Y-72566667D02*
X58369048Y-72804762D01*
X58369048Y-72185714D01*
X69352381Y-80495238D02*
X70161905Y-80495238D01*
X70257143Y-80447619D01*
X70304762Y-80400000D01*
X70352381Y-80304762D01*
X70352381Y-80114285D01*
X70304762Y-80019047D01*
X70257143Y-79971428D01*
X70161905Y-79923809D01*
X69352381Y-79923809D01*
X70304762Y-79495238D02*
X70352381Y-79352381D01*
X70352381Y-79114285D01*
X70304762Y-79019047D01*
X70257143Y-78971428D01*
X70161905Y-78923809D01*
X70066667Y-78923809D01*
X69971429Y-78971428D01*
X69923810Y-79019047D01*
X69876190Y-79114285D01*
X69828571Y-79304762D01*
X69780952Y-79400000D01*
X69733333Y-79447619D01*
X69638095Y-79495238D01*
X69542857Y-79495238D01*
X69447619Y-79447619D01*
X69400000Y-79400000D01*
X69352381Y-79304762D01*
X69352381Y-79066666D01*
X69400000Y-78923809D01*
X69828571Y-78161904D02*
X69876190Y-78019047D01*
X69923810Y-77971428D01*
X70019048Y-77923809D01*
X70161905Y-77923809D01*
X70257143Y-77971428D01*
X70304762Y-78019047D01*
X70352381Y-78114285D01*
X70352381Y-78495238D01*
X69352381Y-78495238D01*
X69352381Y-78161904D01*
X69400000Y-78066666D01*
X69447619Y-78019047D01*
X69542857Y-77971428D01*
X69638095Y-77971428D01*
X69733333Y-78019047D01*
X69780952Y-78066666D01*
X69828571Y-78161904D01*
X69828571Y-78495238D01*
X70447619Y-77733333D02*
X70447619Y-76971428D01*
X69828571Y-76399999D02*
X69828571Y-76733333D01*
X70352381Y-76733333D02*
X69352381Y-76733333D01*
X69352381Y-76257142D01*
X69828571Y-75876190D02*
X69828571Y-75542856D01*
X70352381Y-75399999D02*
X70352381Y-75876190D01*
X69352381Y-75876190D01*
X69352381Y-75399999D01*
X70352381Y-74971428D02*
X69352381Y-74971428D01*
X70066667Y-74638094D01*
X69352381Y-74304761D01*
X70352381Y-74304761D01*
X70066667Y-73876190D02*
X70066667Y-73399999D01*
X70352381Y-73971428D02*
X69352381Y-73638095D01*
X70352381Y-73304761D01*
X70352381Y-72495237D02*
X70352381Y-72971428D01*
X69352381Y-72971428D01*
X69828571Y-72161904D02*
X69828571Y-71828570D01*
X70352381Y-71685713D02*
X70352381Y-72161904D01*
X69352381Y-72161904D01*
X69352381Y-71685713D01*
X70447619Y-71495237D02*
X70447619Y-70733332D01*
X69352381Y-70590475D02*
X70352381Y-70352380D01*
X69638095Y-70161903D01*
X70352381Y-69971427D01*
X69352381Y-69733332D01*
X70352381Y-69352380D02*
X69352381Y-69352380D01*
X69352381Y-69019047D02*
X69352381Y-68447618D01*
X70352381Y-68733333D02*
X69352381Y-68733333D01*
X70352381Y-68114285D02*
X69352381Y-68114285D01*
X69828571Y-68114285D02*
X69828571Y-67542856D01*
X70352381Y-67542856D02*
X69352381Y-67542856D01*
X70447619Y-67304761D02*
X70447619Y-66542856D01*
X70352381Y-66304761D02*
X69352381Y-66304761D01*
X70352381Y-65828571D02*
X69352381Y-65828571D01*
X69352381Y-65590476D01*
X69400000Y-65447618D01*
X69495238Y-65352380D01*
X69590476Y-65304761D01*
X69780952Y-65257142D01*
X69923810Y-65257142D01*
X70114286Y-65304761D01*
X70209524Y-65352380D01*
X70304762Y-65447618D01*
X70352381Y-65590476D01*
X70352381Y-65828571D01*
X96816667Y-57352381D02*
X96816667Y-58066667D01*
X96769047Y-58209524D01*
X96673809Y-58304762D01*
X96530952Y-58352381D01*
X96435714Y-58352381D01*
X97435714Y-57780952D02*
X97340476Y-57733333D01*
X97292857Y-57685714D01*
X97245238Y-57590476D01*
X97245238Y-57542857D01*
X97292857Y-57447619D01*
X97340476Y-57400000D01*
X97435714Y-57352381D01*
X97626191Y-57352381D01*
X97721429Y-57400000D01*
X97769048Y-57447619D01*
X97816667Y-57542857D01*
X97816667Y-57590476D01*
X97769048Y-57685714D01*
X97721429Y-57733333D01*
X97626191Y-57780952D01*
X97435714Y-57780952D01*
X97340476Y-57828571D01*
X97292857Y-57876190D01*
X97245238Y-57971429D01*
X97245238Y-58161905D01*
X97292857Y-58257143D01*
X97340476Y-58304762D01*
X97435714Y-58352381D01*
X97626191Y-58352381D01*
X97721429Y-58304762D01*
X97769048Y-58257143D01*
X97816667Y-58161905D01*
X97816667Y-57971429D01*
X97769048Y-57876190D01*
X97721429Y-57828571D01*
X97626191Y-57780952D01*
X89554762Y-66302381D02*
X89554762Y-67111905D01*
X89602381Y-67207143D01*
X89650000Y-67254762D01*
X89745238Y-67302381D01*
X89935715Y-67302381D01*
X90030953Y-67254762D01*
X90078572Y-67207143D01*
X90126191Y-67111905D01*
X90126191Y-66302381D01*
X90554762Y-67254762D02*
X90697619Y-67302381D01*
X90935715Y-67302381D01*
X91030953Y-67254762D01*
X91078572Y-67207143D01*
X91126191Y-67111905D01*
X91126191Y-67016667D01*
X91078572Y-66921429D01*
X91030953Y-66873810D01*
X90935715Y-66826190D01*
X90745238Y-66778571D01*
X90650000Y-66730952D01*
X90602381Y-66683333D01*
X90554762Y-66588095D01*
X90554762Y-66492857D01*
X90602381Y-66397619D01*
X90650000Y-66350000D01*
X90745238Y-66302381D01*
X90983334Y-66302381D01*
X91126191Y-66350000D01*
X91888096Y-66778571D02*
X92030953Y-66826190D01*
X92078572Y-66873810D01*
X92126191Y-66969048D01*
X92126191Y-67111905D01*
X92078572Y-67207143D01*
X92030953Y-67254762D01*
X91935715Y-67302381D01*
X91554762Y-67302381D01*
X91554762Y-66302381D01*
X91888096Y-66302381D01*
X91983334Y-66350000D01*
X92030953Y-66397619D01*
X92078572Y-66492857D01*
X92078572Y-66588095D01*
X92030953Y-66683333D01*
X91983334Y-66730952D01*
X91888096Y-66778571D01*
X91554762Y-66778571D01*
X92316667Y-67397619D02*
X93078572Y-67397619D01*
X93650001Y-66778571D02*
X93316667Y-66778571D01*
X93316667Y-67302381D02*
X93316667Y-66302381D01*
X93792858Y-66302381D01*
X94173810Y-66778571D02*
X94507144Y-66778571D01*
X94650001Y-67302381D02*
X94173810Y-67302381D01*
X94173810Y-66302381D01*
X94650001Y-66302381D01*
X95078572Y-67302381D02*
X95078572Y-66302381D01*
X95411906Y-67016667D01*
X95745239Y-66302381D01*
X95745239Y-67302381D01*
X96173810Y-67016667D02*
X96650001Y-67016667D01*
X96078572Y-67302381D02*
X96411905Y-66302381D01*
X96745239Y-67302381D01*
X97554763Y-67302381D02*
X97078572Y-67302381D01*
X97078572Y-66302381D01*
X97888096Y-66778571D02*
X98221430Y-66778571D01*
X98364287Y-67302381D02*
X97888096Y-67302381D01*
X97888096Y-66302381D01*
X98364287Y-66302381D01*
X98554763Y-67397619D02*
X99316668Y-67397619D01*
X99459525Y-66302381D02*
X99697620Y-67302381D01*
X99888097Y-66588095D01*
X100078573Y-67302381D01*
X100316668Y-66302381D01*
X100697620Y-67302381D02*
X100697620Y-66302381D01*
X101030953Y-66302381D02*
X101602382Y-66302381D01*
X101316667Y-67302381D02*
X101316667Y-66302381D01*
X101935715Y-67302381D02*
X101935715Y-66302381D01*
X101935715Y-66778571D02*
X102507144Y-66778571D01*
X102507144Y-67302381D02*
X102507144Y-66302381D01*
X102745239Y-67397619D02*
X103507144Y-67397619D01*
X103745239Y-67302381D02*
X103745239Y-66302381D01*
X104221429Y-67302381D02*
X104221429Y-66302381D01*
X104459524Y-66302381D01*
X104602382Y-66350000D01*
X104697620Y-66445238D01*
X104745239Y-66540476D01*
X104792858Y-66730952D01*
X104792858Y-66873810D01*
X104745239Y-67064286D01*
X104697620Y-67159524D01*
X104602382Y-67254762D01*
X104459524Y-67302381D01*
X104221429Y-67302381D01*
M02*
