G04 #@! TF.FileFunction,Copper,L2,Bot,Signal*
%FSLAX46Y46*%
G04 Gerber Fmt 4.6, Leading zero omitted, Abs format (unit mm)*
G04 Created by KiCad (PCBNEW (2015-01-08 BZR 5360)-product) date 2015-02-07T22:59:37 CET*
%MOMM*%
G01*
G04 APERTURE LIST*
%ADD10C,0.100000*%
%ADD11R,2.032000X1.727200*%
%ADD12O,2.032000X1.727200*%
%ADD13R,1.500000X1.500000*%
%ADD14C,1.500000*%
%ADD15C,3.300000*%
%ADD16O,3.500000X1.500000*%
%ADD17R,2.500000X0.500000*%
%ADD18R,2.500000X2.000000*%
%ADD19O,1.000000X2.000000*%
%ADD20R,0.400000X1.350000*%
%ADD21R,1.600000X1.200000*%
%ADD22C,0.889000*%
%ADD23C,0.254000*%
%ADD24C,0.508000*%
G04 APERTURE END LIST*
D10*
D11*
X80010000Y-66675000D03*
D12*
X80010000Y-69215000D03*
X80010000Y-71755000D03*
X80010000Y-74295000D03*
X80010000Y-76835000D03*
X80010000Y-79375000D03*
D11*
X83185000Y-66675000D03*
D12*
X83185000Y-69215000D03*
X83185000Y-71755000D03*
X83185000Y-74295000D03*
X83185000Y-76835000D03*
X83185000Y-79375000D03*
D13*
X72600000Y-69250000D03*
D14*
X72600000Y-71750000D03*
X72600000Y-73750000D03*
X72600000Y-76250000D03*
D15*
X69890000Y-79321000D03*
X69890000Y-66179000D03*
D13*
X90200000Y-69300000D03*
D14*
X90200000Y-71800000D03*
X90200000Y-73800000D03*
X90200000Y-76300000D03*
D15*
X92910000Y-79371000D03*
X92910000Y-66229000D03*
D14*
X97900000Y-76300000D03*
X97900000Y-73800000D03*
X97900000Y-71800000D03*
D13*
X97900000Y-69300000D03*
D16*
X100000000Y-66950000D03*
X100000000Y-78650000D03*
D14*
X65000000Y-76350000D03*
X65000000Y-73850000D03*
X65000000Y-71850000D03*
D13*
X65000000Y-69350000D03*
D16*
X62900000Y-67000000D03*
X62900000Y-78700000D03*
D17*
X95550000Y-71150000D03*
X95550000Y-71950000D03*
X95550000Y-72750000D03*
X95550000Y-73550000D03*
X95550000Y-74350000D03*
D18*
X101050000Y-77150000D03*
X95550000Y-77150000D03*
X95550000Y-68350000D03*
X101050000Y-68350000D03*
D19*
X94325000Y-62400000D03*
X99975000Y-62400000D03*
X68625000Y-62400000D03*
D20*
X64500000Y-64800000D03*
X65150000Y-64800000D03*
X65800000Y-64800000D03*
X66450000Y-64800000D03*
X67100000Y-64800000D03*
D19*
X62975000Y-62400000D03*
D21*
X62500000Y-64650000D03*
X69100000Y-64650000D03*
D22*
X69367400Y-74011600D03*
X93599000Y-73914000D03*
D23*
X65049400Y-69292400D02*
X65005000Y-69336800D01*
X65049400Y-66518600D02*
X65049400Y-69292400D01*
X64495000Y-65964200D02*
X65049400Y-66518600D01*
X64495000Y-64816800D02*
X64495000Y-65964200D01*
X65145000Y-64816800D02*
X65145000Y-65877600D01*
X66141600Y-70700200D02*
X65005000Y-71836800D01*
X66141600Y-68423600D02*
X66141600Y-70700200D01*
X65557402Y-67839402D02*
X66141600Y-68423600D01*
X65557402Y-66290002D02*
X65557402Y-67839402D01*
X65145000Y-65877600D02*
X65557402Y-66290002D01*
X65795000Y-64816800D02*
X65795000Y-65765600D01*
X65795000Y-65765600D02*
X66090800Y-66061400D01*
X66649602Y-72192198D02*
X65005000Y-73836800D01*
X66649602Y-68195002D02*
X66649602Y-72192198D01*
X66090800Y-67636200D02*
X66649602Y-68195002D01*
X66090800Y-66061400D02*
X66090800Y-67636200D01*
X67095000Y-65592400D02*
X67157600Y-65655000D01*
X67157600Y-65655000D02*
X67157600Y-67229800D01*
X67157600Y-67229800D02*
X67716400Y-67788600D01*
X67095000Y-64816800D02*
X67095000Y-65592400D01*
X72625000Y-76050000D02*
X72625000Y-76336800D01*
X67716400Y-71141400D02*
X72625000Y-76050000D01*
X67716400Y-67788600D02*
X67716400Y-71141400D01*
X68620000Y-64191800D02*
X69095000Y-64666800D01*
X62970000Y-64191800D02*
X62495000Y-64666800D01*
D24*
X62905000Y-65076800D02*
X62495000Y-64666800D01*
X62905000Y-66986800D02*
X62905000Y-65076800D01*
X62495000Y-62891800D02*
X62970000Y-62416800D01*
X62495000Y-64666800D02*
X62495000Y-62891800D01*
X68620000Y-64191800D02*
X69095000Y-64666800D01*
X68620000Y-62416800D02*
X68620000Y-64191800D01*
X69095000Y-65445800D02*
X69915000Y-66265800D01*
X69095000Y-64666800D02*
X69095000Y-65445800D01*
D23*
X67183000Y-71827200D02*
X69367400Y-74011600D01*
X66445000Y-65653600D02*
X66624200Y-65832800D01*
X66624200Y-65832800D02*
X66624200Y-67433000D01*
X66624200Y-67433000D02*
X67183000Y-67991800D01*
X67183000Y-67991800D02*
X67183000Y-71827200D01*
X66445000Y-64816800D02*
X66445000Y-65653600D01*
D24*
X83185000Y-66675000D02*
X87595700Y-66675000D01*
D23*
X90245000Y-69324300D02*
X93715000Y-69324300D01*
D24*
X90245000Y-69324300D02*
X93454300Y-69324300D01*
X87595700Y-66675000D02*
X90245000Y-69324300D01*
X95284300Y-71154300D02*
X95545000Y-71154300D01*
X96035000Y-71154300D02*
X97865000Y-69324300D01*
X95545000Y-71154300D02*
X96035000Y-71154300D01*
D23*
X93715000Y-69324300D02*
X95545000Y-71154300D01*
D24*
X93454300Y-69324300D02*
X95284300Y-71154300D01*
D23*
X95545000Y-71954300D02*
X97735000Y-71954300D01*
X83185000Y-69215000D02*
X87635700Y-69215000D01*
X97735000Y-71954300D02*
X97865000Y-71824300D01*
X90375000Y-71954300D02*
X90245000Y-71824300D01*
X95545000Y-71954300D02*
X90375000Y-71954300D01*
X87635700Y-69215000D02*
X90245000Y-71824300D01*
X95545000Y-72754300D02*
X91315000Y-72754300D01*
X95545000Y-72754300D02*
X96795000Y-72754300D01*
X96795000Y-72754300D02*
X97865000Y-73824300D01*
X83185000Y-71755000D02*
X88175700Y-71755000D01*
X91315000Y-72754300D02*
X90245000Y-73824300D01*
X88175700Y-71755000D02*
X90245000Y-73824300D01*
D24*
X95895000Y-74354300D02*
X97865000Y-76324300D01*
X95317700Y-74354300D02*
X95545000Y-74354300D01*
X95545000Y-74354300D02*
X95895000Y-74354300D01*
X93347700Y-76324300D02*
X95317700Y-74354300D01*
X83185000Y-76835000D02*
X89734300Y-76835000D01*
X89734300Y-76835000D02*
X90245000Y-76324300D01*
X90245000Y-76324300D02*
X93347700Y-76324300D01*
X101050000Y-68350000D02*
X101050000Y-70050000D01*
X101100000Y-70100000D02*
X101100000Y-77100000D01*
X101050000Y-70050000D02*
X101100000Y-70100000D01*
X101100000Y-77100000D02*
X101050000Y-77150000D01*
X99965000Y-78234300D02*
X101045000Y-77154300D01*
X99965000Y-78674300D02*
X99965000Y-78234300D01*
X99244000Y-79395300D02*
X99965000Y-78674300D01*
X92955000Y-79395300D02*
X99244000Y-79395300D01*
X93304000Y-79395300D02*
X95545000Y-77154300D01*
X92955000Y-79395300D02*
X93304000Y-79395300D01*
X95056000Y-68354300D02*
X92955000Y-66253300D01*
X95545000Y-68354300D02*
X95056000Y-68354300D01*
X99965000Y-67274300D02*
X101045000Y-68354300D01*
X99965000Y-66974300D02*
X99965000Y-67274300D01*
X93676000Y-66974300D02*
X92955000Y-66253300D01*
X99965000Y-66974300D02*
X93676000Y-66974300D01*
X83205300Y-79395300D02*
X83185000Y-79375000D01*
X92955000Y-79395300D02*
X83205300Y-79395300D01*
D23*
X93599000Y-73914000D02*
X91821000Y-73914000D01*
X93958700Y-73554300D02*
X93599000Y-73914000D01*
X95545000Y-73554300D02*
X93958700Y-73554300D01*
X91821000Y-73914000D02*
X90678000Y-75057000D01*
X90678000Y-75057000D02*
X83947000Y-75057000D01*
X83947000Y-75057000D02*
X83185000Y-74295000D01*
M02*
