G04 #@! TF.FileFunction,Legend,Bot*
%FSLAX46Y46*%
G04 Gerber Fmt 4.6, Leading zero omitted, Abs format (unit mm)*
G04 Created by KiCad (PCBNEW (2015-01-08 BZR 5360)-product) date 2015-02-07T22:59:37 CET*
%MOMM*%
G01*
G04 APERTURE LIST*
%ADD10C,0.100000*%
%ADD11C,0.300000*%
%ADD12C,0.150000*%
G04 APERTURE END LIST*
D10*
D11*
X92214285Y-61178571D02*
X92214285Y-62392857D01*
X92142857Y-62535714D01*
X92071428Y-62607143D01*
X91928571Y-62678571D01*
X91642857Y-62678571D01*
X91499999Y-62607143D01*
X91428571Y-62535714D01*
X91357142Y-62392857D01*
X91357142Y-61178571D01*
X90714285Y-62607143D02*
X90499999Y-62678571D01*
X90142856Y-62678571D01*
X89999999Y-62607143D01*
X89928570Y-62535714D01*
X89857142Y-62392857D01*
X89857142Y-62250000D01*
X89928570Y-62107143D01*
X89999999Y-62035714D01*
X90142856Y-61964286D01*
X90428570Y-61892857D01*
X90571428Y-61821429D01*
X90642856Y-61750000D01*
X90714285Y-61607143D01*
X90714285Y-61464286D01*
X90642856Y-61321429D01*
X90571428Y-61250000D01*
X90428570Y-61178571D01*
X90071428Y-61178571D01*
X89857142Y-61250000D01*
X88714285Y-61892857D02*
X88499999Y-61964286D01*
X88428571Y-62035714D01*
X88357142Y-62178571D01*
X88357142Y-62392857D01*
X88428571Y-62535714D01*
X88499999Y-62607143D01*
X88642857Y-62678571D01*
X89214285Y-62678571D01*
X89214285Y-61178571D01*
X88714285Y-61178571D01*
X88571428Y-61250000D01*
X88499999Y-61321429D01*
X88428571Y-61464286D01*
X88428571Y-61607143D01*
X88499999Y-61750000D01*
X88571428Y-61821429D01*
X88714285Y-61892857D01*
X89214285Y-61892857D01*
X86571428Y-62678571D02*
X86571428Y-61178571D01*
X85857142Y-62678571D02*
X85857142Y-61178571D01*
X84999999Y-62678571D01*
X84999999Y-61178571D01*
X83857142Y-61178571D02*
X83857142Y-62250000D01*
X83928570Y-62464286D01*
X84071427Y-62607143D01*
X84285713Y-62678571D01*
X84428570Y-62678571D01*
X83142856Y-61892857D02*
X82642856Y-61892857D01*
X82428570Y-62678571D02*
X83142856Y-62678571D01*
X83142856Y-61178571D01*
X82428570Y-61178571D01*
X80928570Y-62535714D02*
X80999999Y-62607143D01*
X81214285Y-62678571D01*
X81357142Y-62678571D01*
X81571427Y-62607143D01*
X81714285Y-62464286D01*
X81785713Y-62321429D01*
X81857142Y-62035714D01*
X81857142Y-61821429D01*
X81785713Y-61535714D01*
X81714285Y-61392857D01*
X81571427Y-61250000D01*
X81357142Y-61178571D01*
X81214285Y-61178571D01*
X80999999Y-61250000D01*
X80928570Y-61321429D01*
X80499999Y-61178571D02*
X79642856Y-61178571D01*
X80071427Y-62678571D02*
X80071427Y-61178571D01*
X78857142Y-61178571D02*
X78571428Y-61178571D01*
X78428570Y-61250000D01*
X78285713Y-61392857D01*
X78214285Y-61678571D01*
X78214285Y-62178571D01*
X78285713Y-62464286D01*
X78428570Y-62607143D01*
X78571428Y-62678571D01*
X78857142Y-62678571D01*
X78999999Y-62607143D01*
X79142856Y-62464286D01*
X79214285Y-62178571D01*
X79214285Y-61678571D01*
X79142856Y-61392857D01*
X78999999Y-61250000D01*
X78857142Y-61178571D01*
X76714284Y-62678571D02*
X77214284Y-61964286D01*
X77571427Y-62678571D02*
X77571427Y-61178571D01*
X76999999Y-61178571D01*
X76857141Y-61250000D01*
X76785713Y-61321429D01*
X76714284Y-61464286D01*
X76714284Y-61678571D01*
X76785713Y-61821429D01*
X76857141Y-61892857D01*
X76999999Y-61964286D01*
X77571427Y-61964286D01*
X75142856Y-61178571D02*
X74642856Y-62678571D01*
X74142856Y-61178571D01*
X72857142Y-62678571D02*
X73714285Y-62678571D01*
X73285713Y-62678571D02*
X73285713Y-61178571D01*
X73428570Y-61392857D01*
X73571428Y-61535714D01*
X73714285Y-61607143D01*
X72214285Y-62535714D02*
X72142857Y-62607143D01*
X72214285Y-62678571D01*
X72285714Y-62607143D01*
X72214285Y-62535714D01*
X72214285Y-62678571D01*
X71214285Y-61178571D02*
X71071428Y-61178571D01*
X70928571Y-61250000D01*
X70857142Y-61321429D01*
X70785713Y-61464286D01*
X70714285Y-61750000D01*
X70714285Y-62107143D01*
X70785713Y-62392857D01*
X70857142Y-62535714D01*
X70928571Y-62607143D01*
X71071428Y-62678571D01*
X71214285Y-62678571D01*
X71357142Y-62607143D01*
X71428571Y-62535714D01*
X71499999Y-62392857D01*
X71571428Y-62107143D01*
X71571428Y-61750000D01*
X71499999Y-61464286D01*
X71428571Y-61321429D01*
X71357142Y-61250000D01*
X71214285Y-61178571D01*
X78136429Y-79982143D02*
X77922143Y-80053571D01*
X77565000Y-80053571D01*
X77422143Y-79982143D01*
X77350714Y-79910714D01*
X77279286Y-79767857D01*
X77279286Y-79625000D01*
X77350714Y-79482143D01*
X77422143Y-79410714D01*
X77565000Y-79339286D01*
X77850714Y-79267857D01*
X77993572Y-79196429D01*
X78065000Y-79125000D01*
X78136429Y-78982143D01*
X78136429Y-78839286D01*
X78065000Y-78696429D01*
X77993572Y-78625000D01*
X77850714Y-78553571D01*
X77493572Y-78553571D01*
X77279286Y-78625000D01*
X76636429Y-80053571D02*
X76636429Y-78553571D01*
X76636429Y-79267857D02*
X75779286Y-79267857D01*
X75779286Y-80053571D02*
X75779286Y-78553571D01*
X74350714Y-80053571D02*
X75065000Y-80053571D01*
X75065000Y-78553571D01*
X73850714Y-80053571D02*
X73850714Y-78553571D01*
X73493571Y-78553571D01*
X73279286Y-78625000D01*
X73136428Y-78767857D01*
X73065000Y-78910714D01*
X72993571Y-79196429D01*
X72993571Y-79410714D01*
X73065000Y-79696429D01*
X73136428Y-79839286D01*
X73279286Y-79982143D01*
X73493571Y-80053571D01*
X73850714Y-80053571D01*
X77342857Y-76085000D02*
X77485714Y-76013571D01*
X77700000Y-76013571D01*
X77914285Y-76085000D01*
X78057143Y-76227857D01*
X78128571Y-76370714D01*
X78200000Y-76656429D01*
X78200000Y-76870714D01*
X78128571Y-77156429D01*
X78057143Y-77299286D01*
X77914285Y-77442143D01*
X77700000Y-77513571D01*
X77557143Y-77513571D01*
X77342857Y-77442143D01*
X77271428Y-77370714D01*
X77271428Y-76870714D01*
X77557143Y-76870714D01*
X76628571Y-77513571D02*
X76628571Y-76013571D01*
X75771428Y-77513571D01*
X75771428Y-76013571D01*
X75057142Y-77513571D02*
X75057142Y-76013571D01*
X74699999Y-76013571D01*
X74485714Y-76085000D01*
X74342856Y-76227857D01*
X74271428Y-76370714D01*
X74199999Y-76656429D01*
X74199999Y-76870714D01*
X74271428Y-77156429D01*
X74342856Y-77299286D01*
X74485714Y-77442143D01*
X74699999Y-77513571D01*
X75057142Y-77513571D01*
X78220000Y-74973571D02*
X78220000Y-73473571D01*
X77505714Y-74973571D02*
X77505714Y-73473571D01*
X77148571Y-73473571D01*
X76934286Y-73545000D01*
X76791428Y-73687857D01*
X76720000Y-73830714D01*
X76648571Y-74116429D01*
X76648571Y-74330714D01*
X76720000Y-74616429D01*
X76791428Y-74759286D01*
X76934286Y-74902143D01*
X77148571Y-74973571D01*
X77505714Y-74973571D01*
X78156428Y-72433571D02*
X78156428Y-70933571D01*
X77799285Y-70933571D01*
X77585000Y-71005000D01*
X77442142Y-71147857D01*
X77370714Y-71290714D01*
X77299285Y-71576429D01*
X77299285Y-71790714D01*
X77370714Y-72076429D01*
X77442142Y-72219286D01*
X77585000Y-72362143D01*
X77799285Y-72433571D01*
X78156428Y-72433571D01*
X76656428Y-71862143D02*
X75513571Y-71862143D01*
X76085000Y-72433571D02*
X76085000Y-71290714D01*
X78156428Y-69893571D02*
X78156428Y-68393571D01*
X77799285Y-68393571D01*
X77585000Y-68465000D01*
X77442142Y-68607857D01*
X77370714Y-68750714D01*
X77299285Y-69036429D01*
X77299285Y-69250714D01*
X77370714Y-69536429D01*
X77442142Y-69679286D01*
X77585000Y-69822143D01*
X77799285Y-69893571D01*
X78156428Y-69893571D01*
X76656428Y-69322143D02*
X75513571Y-69322143D01*
X78200000Y-65853571D02*
X77700000Y-67353571D01*
X77200000Y-65853571D01*
X75842857Y-67210714D02*
X75914286Y-67282143D01*
X76128572Y-67353571D01*
X76271429Y-67353571D01*
X76485714Y-67282143D01*
X76628572Y-67139286D01*
X76700000Y-66996429D01*
X76771429Y-66710714D01*
X76771429Y-66496429D01*
X76700000Y-66210714D01*
X76628572Y-66067857D01*
X76485714Y-65925000D01*
X76271429Y-65853571D01*
X76128572Y-65853571D01*
X75914286Y-65925000D01*
X75842857Y-65996429D01*
X74342857Y-67210714D02*
X74414286Y-67282143D01*
X74628572Y-67353571D01*
X74771429Y-67353571D01*
X74985714Y-67282143D01*
X75128572Y-67139286D01*
X75200000Y-66996429D01*
X75271429Y-66710714D01*
X75271429Y-66496429D01*
X75200000Y-66210714D01*
X75128572Y-66067857D01*
X74985714Y-65925000D01*
X74771429Y-65853571D01*
X74628572Y-65853571D01*
X74414286Y-65925000D01*
X74342857Y-65996429D01*
D12*
X94800000Y-79350000D02*
X103200000Y-79350000D01*
X89200000Y-79350000D02*
X91000000Y-79350000D01*
X94800000Y-66250000D02*
X103200000Y-66250000D01*
X89200000Y-66250000D02*
X91000000Y-66250000D01*
X101600000Y-76650000D02*
X99650000Y-76650000D01*
X101600000Y-74950000D02*
X101600000Y-76650000D01*
X99600000Y-74950000D02*
X101600000Y-74950000D01*
X99600000Y-74950000D02*
X97700000Y-74950000D01*
X99650000Y-76650000D02*
X97700000Y-76650000D01*
X98650000Y-77250000D02*
X99550000Y-76650000D01*
X97700000Y-77250000D02*
X98650000Y-77250000D01*
X98650000Y-74350000D02*
X99550000Y-74950000D01*
X97700000Y-74350000D02*
X98650000Y-74350000D01*
X97700000Y-77250000D02*
X97700000Y-74350000D01*
X99550000Y-74950000D02*
X99550000Y-76650000D01*
X101300000Y-75250000D02*
X101300000Y-76350000D01*
X101300000Y-76350000D02*
X99550000Y-76650000D01*
X101300000Y-75250000D02*
X99550000Y-74950000D01*
X101300000Y-69250000D02*
X99550000Y-68950000D01*
X101300000Y-70350000D02*
X99550000Y-70650000D01*
X101300000Y-69250000D02*
X101300000Y-70350000D01*
X99550000Y-68950000D02*
X99550000Y-70650000D01*
X97700000Y-71250000D02*
X97700000Y-68350000D01*
X97700000Y-68350000D02*
X98650000Y-68350000D01*
X98650000Y-68350000D02*
X99550000Y-68950000D01*
X97700000Y-71250000D02*
X98650000Y-71250000D01*
X98650000Y-71250000D02*
X99550000Y-70650000D01*
X99650000Y-70650000D02*
X97700000Y-70650000D01*
X99600000Y-68950000D02*
X97700000Y-68950000D01*
X99600000Y-68950000D02*
X101600000Y-68950000D01*
X101600000Y-68950000D02*
X101600000Y-70650000D01*
X101600000Y-70650000D02*
X99650000Y-70650000D01*
X103200000Y-79350000D02*
G75*
G02X103900000Y-80050000I0J-700000D01*
G01*
X103900000Y-65550000D02*
G75*
G02X103200000Y-66250000I-700000J0D01*
G01*
X89200000Y-66250000D02*
X89200000Y-79350000D01*
X103200000Y-79350000D02*
X103200000Y-66250000D01*
X45140000Y-78860000D02*
X59870000Y-78850000D01*
X59890000Y-66850000D02*
X45140000Y-66850000D01*
X59870000Y-66850000D02*
X60900000Y-66850000D01*
X59870000Y-78850000D02*
X60900000Y-78850000D01*
X63780000Y-68000000D02*
X63780000Y-77700000D01*
X49200000Y-68050000D02*
X51200000Y-68050000D01*
X51200000Y-68050000D02*
X51200000Y-70250000D01*
X51200000Y-70250000D02*
X49200000Y-70250000D01*
X49200000Y-70250000D02*
X49200000Y-68050000D01*
X49200000Y-77650000D02*
X51200000Y-77650000D01*
X51200000Y-77650000D02*
X51200000Y-75450000D01*
X51200000Y-75450000D02*
X49200000Y-75450000D01*
X49200000Y-75450000D02*
X49200000Y-77650000D01*
X59800000Y-72850000D02*
X56600000Y-72850000D01*
X56600000Y-72850000D02*
X57200000Y-72250000D01*
X57200000Y-72250000D02*
X55200000Y-72250000D01*
X55200000Y-72250000D02*
X55800000Y-72850000D01*
X55800000Y-72850000D02*
X48000000Y-72850000D01*
X48000000Y-72850000D02*
X48600000Y-72250000D01*
X48600000Y-72250000D02*
X46600000Y-72250000D01*
X46600000Y-72250000D02*
X47200000Y-72850000D01*
X47200000Y-72850000D02*
X45200000Y-72850000D01*
X59870000Y-78850000D02*
X59870000Y-66850000D01*
X45140000Y-66850000D02*
X45140000Y-78850000D01*
X99550000Y-68900000D02*
X97050000Y-68900000D01*
X103550000Y-68900000D02*
X102550000Y-68900000D01*
X102550000Y-76600000D02*
X103550000Y-76600000D01*
X97050000Y-76600000D02*
X99550000Y-76600000D01*
X94300000Y-74850000D02*
X94300000Y-75900000D01*
X94300000Y-69600000D02*
X94300000Y-70650000D01*
X101000000Y-73150000D02*
X99900000Y-72950000D01*
X99900000Y-72950000D02*
X99900000Y-72550000D01*
X99900000Y-72550000D02*
X101000000Y-72300000D01*
X101000000Y-72300000D02*
X101000000Y-73200000D01*
X102850000Y-72300000D02*
X99650000Y-72300000D01*
X99650000Y-72300000D02*
X99650000Y-73200000D01*
X99650000Y-73200000D02*
X102850000Y-73200000D01*
X102850000Y-68900000D02*
X102850000Y-76600000D01*
X103550000Y-76600000D02*
X103550000Y-68900000D01*
X69500000Y-59900000D02*
X69500000Y-63800000D01*
X62100000Y-63800000D02*
X62100000Y-59900000D01*
X64050000Y-64900000D02*
X63550000Y-64900000D01*
X68050000Y-64900000D02*
X67550000Y-64900000D01*
X69200000Y-59300000D02*
X62400000Y-59300000D01*
X62400000Y-59300000D02*
X62400000Y-59900000D01*
X69200000Y-59300000D02*
X69200000Y-59900000D01*
X69500000Y-59900000D02*
X69800000Y-59300000D01*
X62100000Y-59900000D02*
X61800000Y-59300000D01*
X69500000Y-59900000D02*
X62100000Y-59900000D01*
X103852381Y-72466667D02*
X104566667Y-72466667D01*
X104709524Y-72419047D01*
X104804762Y-72323809D01*
X104852381Y-72180952D01*
X104852381Y-72085714D01*
X103852381Y-73371429D02*
X103852381Y-73180952D01*
X103900000Y-73085714D01*
X103947619Y-73038095D01*
X104090476Y-72942857D01*
X104280952Y-72895238D01*
X104661905Y-72895238D01*
X104757143Y-72942857D01*
X104804762Y-72990476D01*
X104852381Y-73085714D01*
X104852381Y-73276191D01*
X104804762Y-73371429D01*
X104757143Y-73419048D01*
X104661905Y-73466667D01*
X104423810Y-73466667D01*
X104328571Y-73419048D01*
X104280952Y-73371429D01*
X104233333Y-73276191D01*
X104233333Y-73085714D01*
X104280952Y-72990476D01*
X104328571Y-72942857D01*
X104423810Y-72895238D01*
X87152381Y-68419047D02*
X87961905Y-68419047D01*
X88057143Y-68466666D01*
X88104762Y-68514285D01*
X88152381Y-68609523D01*
X88152381Y-68800000D01*
X88104762Y-68895238D01*
X88057143Y-68942857D01*
X87961905Y-68990476D01*
X87152381Y-68990476D01*
X88104762Y-69419047D02*
X88152381Y-69561904D01*
X88152381Y-69800000D01*
X88104762Y-69895238D01*
X88057143Y-69942857D01*
X87961905Y-69990476D01*
X87866667Y-69990476D01*
X87771429Y-69942857D01*
X87723810Y-69895238D01*
X87676190Y-69800000D01*
X87628571Y-69609523D01*
X87580952Y-69514285D01*
X87533333Y-69466666D01*
X87438095Y-69419047D01*
X87342857Y-69419047D01*
X87247619Y-69466666D01*
X87200000Y-69514285D01*
X87152381Y-69609523D01*
X87152381Y-69847619D01*
X87200000Y-69990476D01*
X87628571Y-70752381D02*
X87676190Y-70895238D01*
X87723810Y-70942857D01*
X87819048Y-70990476D01*
X87961905Y-70990476D01*
X88057143Y-70942857D01*
X88104762Y-70895238D01*
X88152381Y-70800000D01*
X88152381Y-70419047D01*
X87152381Y-70419047D01*
X87152381Y-70752381D01*
X87200000Y-70847619D01*
X87247619Y-70895238D01*
X87342857Y-70942857D01*
X87438095Y-70942857D01*
X87533333Y-70895238D01*
X87580952Y-70847619D01*
X87628571Y-70752381D01*
X87628571Y-70419047D01*
X88247619Y-71180952D02*
X88247619Y-71942857D01*
X87628571Y-72514286D02*
X87628571Y-72180952D01*
X88152381Y-72180952D02*
X87152381Y-72180952D01*
X87152381Y-72657143D01*
X87628571Y-73038095D02*
X87628571Y-73371429D01*
X88152381Y-73514286D02*
X88152381Y-73038095D01*
X87152381Y-73038095D01*
X87152381Y-73514286D01*
X88152381Y-73942857D02*
X87152381Y-73942857D01*
X87866667Y-74276191D01*
X87152381Y-74609524D01*
X88152381Y-74609524D01*
X87866667Y-75038095D02*
X87866667Y-75514286D01*
X88152381Y-74942857D02*
X87152381Y-75276190D01*
X88152381Y-75609524D01*
X88152381Y-76419048D02*
X88152381Y-75942857D01*
X87152381Y-75942857D01*
X87628571Y-76752381D02*
X87628571Y-77085715D01*
X88152381Y-77228572D02*
X88152381Y-76752381D01*
X87152381Y-76752381D01*
X87152381Y-77228572D01*
X43452381Y-72516667D02*
X44166667Y-72516667D01*
X44309524Y-72469047D01*
X44404762Y-72373809D01*
X44452381Y-72230952D01*
X44452381Y-72135714D01*
X44452381Y-73516667D02*
X44452381Y-72945238D01*
X44452381Y-73230952D02*
X43452381Y-73230952D01*
X43595238Y-73135714D01*
X43690476Y-73040476D01*
X43738095Y-72945238D01*
X66952381Y-69350000D02*
X67761905Y-69350000D01*
X67857143Y-69397619D01*
X67904762Y-69445238D01*
X67952381Y-69540476D01*
X67952381Y-69730953D01*
X67904762Y-69826191D01*
X67857143Y-69873810D01*
X67761905Y-69921429D01*
X66952381Y-69921429D01*
X67904762Y-70350000D02*
X67952381Y-70492857D01*
X67952381Y-70730953D01*
X67904762Y-70826191D01*
X67857143Y-70873810D01*
X67761905Y-70921429D01*
X67666667Y-70921429D01*
X67571429Y-70873810D01*
X67523810Y-70826191D01*
X67476190Y-70730953D01*
X67428571Y-70540476D01*
X67380952Y-70445238D01*
X67333333Y-70397619D01*
X67238095Y-70350000D01*
X67142857Y-70350000D01*
X67047619Y-70397619D01*
X67000000Y-70445238D01*
X66952381Y-70540476D01*
X66952381Y-70778572D01*
X67000000Y-70921429D01*
X67428571Y-71683334D02*
X67476190Y-71826191D01*
X67523810Y-71873810D01*
X67619048Y-71921429D01*
X67761905Y-71921429D01*
X67857143Y-71873810D01*
X67904762Y-71826191D01*
X67952381Y-71730953D01*
X67952381Y-71350000D01*
X66952381Y-71350000D01*
X66952381Y-71683334D01*
X67000000Y-71778572D01*
X67047619Y-71826191D01*
X67142857Y-71873810D01*
X67238095Y-71873810D01*
X67333333Y-71826191D01*
X67380952Y-71778572D01*
X67428571Y-71683334D01*
X67428571Y-71350000D01*
X68047619Y-72111905D02*
X68047619Y-72873810D01*
X67952381Y-73111905D02*
X66952381Y-73111905D01*
X67666667Y-73445239D01*
X66952381Y-73778572D01*
X67952381Y-73778572D01*
X67666667Y-74207143D02*
X67666667Y-74683334D01*
X67952381Y-74111905D02*
X66952381Y-74445238D01*
X67952381Y-74778572D01*
X67952381Y-75588096D02*
X67952381Y-75111905D01*
X66952381Y-75111905D01*
X67428571Y-75921429D02*
X67428571Y-76254763D01*
X67952381Y-76397620D02*
X67952381Y-75921429D01*
X66952381Y-75921429D01*
X66952381Y-76397620D01*
X104102381Y-72416667D02*
X104816667Y-72416667D01*
X104959524Y-72369047D01*
X105054762Y-72273809D01*
X105102381Y-72130952D01*
X105102381Y-72035714D01*
X104102381Y-72797619D02*
X104102381Y-73464286D01*
X105102381Y-73035714D01*
X92452381Y-65154762D02*
X93261905Y-65154762D01*
X93357143Y-65202381D01*
X93404762Y-65250000D01*
X93452381Y-65345238D01*
X93452381Y-65535715D01*
X93404762Y-65630953D01*
X93357143Y-65678572D01*
X93261905Y-65726191D01*
X92452381Y-65726191D01*
X93404762Y-66154762D02*
X93452381Y-66297619D01*
X93452381Y-66535715D01*
X93404762Y-66630953D01*
X93357143Y-66678572D01*
X93261905Y-66726191D01*
X93166667Y-66726191D01*
X93071429Y-66678572D01*
X93023810Y-66630953D01*
X92976190Y-66535715D01*
X92928571Y-66345238D01*
X92880952Y-66250000D01*
X92833333Y-66202381D01*
X92738095Y-66154762D01*
X92642857Y-66154762D01*
X92547619Y-66202381D01*
X92500000Y-66250000D01*
X92452381Y-66345238D01*
X92452381Y-66583334D01*
X92500000Y-66726191D01*
X92928571Y-67488096D02*
X92976190Y-67630953D01*
X93023810Y-67678572D01*
X93119048Y-67726191D01*
X93261905Y-67726191D01*
X93357143Y-67678572D01*
X93404762Y-67630953D01*
X93452381Y-67535715D01*
X93452381Y-67154762D01*
X92452381Y-67154762D01*
X92452381Y-67488096D01*
X92500000Y-67583334D01*
X92547619Y-67630953D01*
X92642857Y-67678572D01*
X92738095Y-67678572D01*
X92833333Y-67630953D01*
X92880952Y-67583334D01*
X92928571Y-67488096D01*
X92928571Y-67154762D01*
X93547619Y-67916667D02*
X93547619Y-68678572D01*
X92928571Y-69250001D02*
X92928571Y-68916667D01*
X93452381Y-68916667D02*
X92452381Y-68916667D01*
X92452381Y-69392858D01*
X92928571Y-69773810D02*
X92928571Y-70107144D01*
X93452381Y-70250001D02*
X93452381Y-69773810D01*
X92452381Y-69773810D01*
X92452381Y-70250001D01*
X93452381Y-70678572D02*
X92452381Y-70678572D01*
X93166667Y-71011906D01*
X92452381Y-71345239D01*
X93452381Y-71345239D01*
X93166667Y-71773810D02*
X93166667Y-72250001D01*
X93452381Y-71678572D02*
X92452381Y-72011905D01*
X93452381Y-72345239D01*
X93452381Y-73154763D02*
X93452381Y-72678572D01*
X92452381Y-72678572D01*
X92928571Y-73488096D02*
X92928571Y-73821430D01*
X93452381Y-73964287D02*
X93452381Y-73488096D01*
X92452381Y-73488096D01*
X92452381Y-73964287D01*
X93547619Y-74154763D02*
X93547619Y-74916668D01*
X92452381Y-75059525D02*
X93452381Y-75297620D01*
X92738095Y-75488097D01*
X93452381Y-75678573D01*
X92452381Y-75916668D01*
X93452381Y-76297620D02*
X92452381Y-76297620D01*
X92452381Y-76630953D02*
X92452381Y-77202382D01*
X93452381Y-76916667D02*
X92452381Y-76916667D01*
X93452381Y-77535715D02*
X92452381Y-77535715D01*
X92928571Y-77535715D02*
X92928571Y-78107144D01*
X93452381Y-78107144D02*
X92452381Y-78107144D01*
X93547619Y-78345239D02*
X93547619Y-79107144D01*
X93452381Y-79345239D02*
X92452381Y-79345239D01*
X93452381Y-79821429D02*
X92452381Y-79821429D01*
X92452381Y-80059524D01*
X92500000Y-80202382D01*
X92595238Y-80297620D01*
X92690476Y-80345239D01*
X92880952Y-80392858D01*
X93023810Y-80392858D01*
X93214286Y-80345239D01*
X93309524Y-80297620D01*
X93404762Y-80202382D01*
X93452381Y-80059524D01*
X93452381Y-79821429D01*
X66133333Y-57352381D02*
X66133333Y-58066667D01*
X66180953Y-58209524D01*
X66276191Y-58304762D01*
X66419048Y-58352381D01*
X66514286Y-58352381D01*
X65752381Y-57352381D02*
X65133333Y-57352381D01*
X65466667Y-57733333D01*
X65323809Y-57733333D01*
X65228571Y-57780952D01*
X65180952Y-57828571D01*
X65133333Y-57923810D01*
X65133333Y-58161905D01*
X65180952Y-58257143D01*
X65228571Y-58304762D01*
X65323809Y-58352381D01*
X65609524Y-58352381D01*
X65704762Y-58304762D01*
X65752381Y-58257143D01*
X73395238Y-66302381D02*
X73395238Y-67111905D01*
X73347619Y-67207143D01*
X73300000Y-67254762D01*
X73204762Y-67302381D01*
X73014285Y-67302381D01*
X72919047Y-67254762D01*
X72871428Y-67207143D01*
X72823809Y-67111905D01*
X72823809Y-66302381D01*
X72395238Y-67254762D02*
X72252381Y-67302381D01*
X72014285Y-67302381D01*
X71919047Y-67254762D01*
X71871428Y-67207143D01*
X71823809Y-67111905D01*
X71823809Y-67016667D01*
X71871428Y-66921429D01*
X71919047Y-66873810D01*
X72014285Y-66826190D01*
X72204762Y-66778571D01*
X72300000Y-66730952D01*
X72347619Y-66683333D01*
X72395238Y-66588095D01*
X72395238Y-66492857D01*
X72347619Y-66397619D01*
X72300000Y-66350000D01*
X72204762Y-66302381D01*
X71966666Y-66302381D01*
X71823809Y-66350000D01*
X71061904Y-66778571D02*
X70919047Y-66826190D01*
X70871428Y-66873810D01*
X70823809Y-66969048D01*
X70823809Y-67111905D01*
X70871428Y-67207143D01*
X70919047Y-67254762D01*
X71014285Y-67302381D01*
X71395238Y-67302381D01*
X71395238Y-66302381D01*
X71061904Y-66302381D01*
X70966666Y-66350000D01*
X70919047Y-66397619D01*
X70871428Y-66492857D01*
X70871428Y-66588095D01*
X70919047Y-66683333D01*
X70966666Y-66730952D01*
X71061904Y-66778571D01*
X71395238Y-66778571D01*
X70633333Y-67397619D02*
X69871428Y-67397619D01*
X69299999Y-66778571D02*
X69633333Y-66778571D01*
X69633333Y-67302381D02*
X69633333Y-66302381D01*
X69157142Y-66302381D01*
X68776190Y-66778571D02*
X68442856Y-66778571D01*
X68299999Y-67302381D02*
X68776190Y-67302381D01*
X68776190Y-66302381D01*
X68299999Y-66302381D01*
X67871428Y-67302381D02*
X67871428Y-66302381D01*
X67538094Y-67016667D01*
X67204761Y-66302381D01*
X67204761Y-67302381D01*
X66776190Y-67016667D02*
X66299999Y-67016667D01*
X66871428Y-67302381D02*
X66538095Y-66302381D01*
X66204761Y-67302381D01*
X65395237Y-67302381D02*
X65871428Y-67302381D01*
X65871428Y-66302381D01*
X65061904Y-66778571D02*
X64728570Y-66778571D01*
X64585713Y-67302381D02*
X65061904Y-67302381D01*
X65061904Y-66302381D01*
X64585713Y-66302381D01*
X64395237Y-67397619D02*
X63633332Y-67397619D01*
X63490475Y-66302381D02*
X63252380Y-67302381D01*
X63061903Y-66588095D01*
X62871427Y-67302381D01*
X62633332Y-66302381D01*
X62252380Y-67302381D02*
X62252380Y-66302381D01*
X61919047Y-66302381D02*
X61347618Y-66302381D01*
X61633333Y-67302381D02*
X61633333Y-66302381D01*
X61014285Y-67302381D02*
X61014285Y-66302381D01*
X61014285Y-66778571D02*
X60442856Y-66778571D01*
X60442856Y-67302381D02*
X60442856Y-66302381D01*
X60204761Y-67397619D02*
X59442856Y-67397619D01*
X59204761Y-67302381D02*
X59204761Y-66302381D01*
X58728571Y-67302381D02*
X58728571Y-66302381D01*
X58490476Y-66302381D01*
X58347618Y-66350000D01*
X58252380Y-66445238D01*
X58204761Y-66540476D01*
X58157142Y-66730952D01*
X58157142Y-66873810D01*
X58204761Y-67064286D01*
X58252380Y-67159524D01*
X58347618Y-67254762D01*
X58490476Y-67302381D01*
X58728571Y-67302381D01*
M02*
