M48
;DRILL file {kicad (2015-01-08 BZR 5360)-product} date 2015-02-07T22:59:40 CET
;FORMAT={-:-/ absolute / inch / decimal}
FMAT,2
INCH,TZ
T1C0.020
T2C0.025
T3C0.035
T4C0.040
T5C0.091
%
G90
G05
M72
T2
X2.731Y-2.9138
X3.685Y-2.91
T3
X2.5591Y-2.7303
X2.5591Y-2.8287
X2.5591Y-2.9075
X2.5591Y-3.0059
X2.8583Y-2.7264
X2.8583Y-2.8248
X2.8583Y-2.9035
X2.8583Y-3.002
X3.5512Y-2.7283
X3.5512Y-2.8268
X3.5512Y-2.9055
X3.5512Y-3.0039
X3.8543Y-2.7283
X3.8543Y-2.8268
X3.8543Y-2.9055
X3.8543Y-3.0039
T4
X3.15Y-2.625
X3.15Y-2.725
X3.15Y-2.825
X3.15Y-2.925
X3.15Y-3.025
X3.15Y-3.125
X3.275Y-2.625
X3.275Y-2.725
X3.275Y-2.825
X3.275Y-2.925
X3.275Y-3.025
X3.275Y-3.125
T5
X2.7516Y-2.6055
X2.7516Y-3.1229
X3.6579Y-2.6074
X3.6579Y-3.1248
T1
X2.4793Y-2.4705G85X2.4793Y-2.4429
G05
X2.7018Y-2.4705G85X2.7018Y-2.4429
G05
X3.7136Y-2.4429G85X3.7136Y-2.4705
G05
X3.936Y-2.4429G85X3.936Y-2.4705
G05
T3
X2.4449Y-2.6378G85X2.5079Y-2.6378
G05
X2.4449Y-3.0984G85X2.5079Y-3.0984
G05
X3.9055Y-2.6358G85X3.9685Y-2.6358
G05
X3.9055Y-3.0965G85X3.9685Y-3.0965
G05
T0
M30
